<svg width="18" height="16" viewBox="0 0 18 16" fill="none" xmlns="http://www.w3.org/2000/svg">
<path d="M8.50781 5.125H9.46484C9.57422 5.125 9.62891 5.20703 9.62891 5.31641L9.4375 10.6758C9.4375 10.7578 9.35547 10.8125 9.27344 10.8125H8.69922C8.61719 10.8125 8.53516 10.7578 8.53516 10.6758L8.34375 5.31641C8.34375 5.20703 8.39844 5.125 8.50781 5.125ZM9 11.3594C9.41016 11.3594 9.76562 11.7148 9.76562 12.125C9.76562 12.5625 9.41016 12.8906 9 12.8906C8.5625 12.8906 8.23438 12.5625 8.23438 12.125C8.23438 11.7148 8.5625 11.3594 9 11.3594ZM16.6836 12.7812C17.2031 13.6562 16.5469 14.75 15.5625 14.75H2.4375C1.42578 14.75 0.796875 13.6562 1.28906 12.7812L7.85156 1.40625C8.34375 0.53125 9.62891 0.53125 10.1211 1.40625L16.6836 12.7812ZM15.5625 13.875C15.8906 13.875 16.1094 13.5195 15.918 13.2188L9.35547 1.84375C9.19141 1.57031 8.78125 1.57031 8.61719 1.84375L2.05469 13.2188C1.89062 13.5195 2.08203 13.875 2.4375 13.875H15.5625Z" fill="#FE2626"/>
</svg>
