<svg width="62" height="62" viewBox="0 0 62 62" fill="none" xmlns="http://www.w3.org/2000/svg">
<g filter="url(#filter0_b_201_116739)">
<circle cx="31.0016" cy="30.9996" r="27.9" fill="#62688F" fill-opacity="0.12"/>
</g>
<g clip-path="url(#clip0_201_116739)">
<path d="M31.0527 12.6019V12.6202C31.071 12.7118 31.071 12.8218 31.071 12.9317V26.1441C31.0527 26.2174 30.9977 26.2357 30.9427 26.2724C30.5579 26.4556 30.1914 26.6206 29.8066 26.7855C29.2752 27.0237 28.7254 27.2803 28.194 27.5185L26.2698 28.3981C25.7384 28.6363 25.207 28.8746 24.6939 29.1128C24.0708 29.406 23.4294 29.6809 22.8064 29.9741C22.275 30.2123 21.7435 30.4688 21.1938 30.7071C20.754 30.9087 20.3142 31.0919 19.8927 31.2935C19.856 31.3118 19.8194 31.3301 19.7827 31.3301C19.7644 31.3301 19.7644 31.3301 19.7461 31.3118L20.2409 30.4872C21.1938 28.9112 22.1284 27.3536 23.0813 25.7776C24.0891 24.0917 25.1154 22.4058 26.1232 20.7199C27.0578 19.1622 28.0107 17.6046 28.9453 16.047C29.6233 14.9108 30.3197 13.7747 30.9977 12.6385C31.016 12.6019 31.0344 12.5835 31.0344 12.5469H31.0527C31.0344 12.5652 31.0527 12.5835 31.0527 12.6019Z" fill="#8A92B2"/>
<path d="M42.3039 31.3117L42.3222 31.33L39.6284 32.9243L31.1622 37.9271C31.1256 37.9454 31.0889 37.9637 31.0706 37.9821C31.0156 37.9821 31.0156 37.9271 31.0156 37.9088V37.7438V26.4189C31.0156 26.3639 31.0156 26.2906 31.034 26.2357C31.0523 26.1624 31.1073 26.1807 31.1622 26.199C31.4005 26.309 31.657 26.4189 31.8952 26.5289C32.6099 26.8587 33.3246 27.1886 34.0393 27.5001C34.6623 27.775 35.2671 28.0682 35.8901 28.343C36.5132 28.6179 37.1362 28.9111 37.7593 29.186C38.2907 29.4242 38.8405 29.6808 39.3719 29.919C39.9033 30.1572 40.4531 30.4138 40.9845 30.652C41.406 30.8353 41.8275 31.0368 42.2489 31.2201C42.2489 31.2751 42.2673 31.2934 42.3039 31.3117Z" fill="#454A75"/>
<path d="M31.0527 49.362C31.0527 49.3803 31.0344 49.3986 31.0344 49.417H31.016C31.016 49.3803 30.9794 49.362 30.9611 49.3253C29.8249 47.731 28.6888 46.1184 27.5526 44.5241C26.3981 42.8932 25.2253 41.2439 24.0708 39.613C22.953 38.037 21.8168 36.4428 20.699 34.8668C20.4058 34.4453 20.1126 34.0422 19.8194 33.6207C19.8011 33.584 19.7827 33.5657 19.7461 33.5107C19.8011 33.5107 19.8377 33.5474 19.856 33.5657C21.4503 34.5003 23.0263 35.4349 24.6206 36.3695C26.4531 37.4506 28.2673 38.5318 30.0998 39.613L31.0344 40.1628C31.071 40.1994 31.071 40.2361 31.071 40.2727V49.1054C31.071 49.197 31.071 49.2887 31.0527 49.362Z" fill="#8A92B2"/>
<path d="M19.7266 31.3483V31.33C20.313 31.0735 20.881 30.7986 21.4674 30.542C22.2188 30.1939 22.9701 29.864 23.7214 29.5158C24.2895 29.2593 24.8759 28.9844 25.444 28.7279C26.287 28.343 27.1116 27.9765 27.9545 27.5917C28.5226 27.3351 29.0907 27.0786 29.6771 26.8037C30.0803 26.6205 30.5017 26.4372 30.9049 26.254C30.9415 26.2356 30.9965 26.2173 31.0148 26.1807C31.0332 26.1807 31.0332 26.199 31.0148 26.2173V37.8538C31.0148 37.9087 30.9965 37.9637 31.0332 38.0004C30.9965 38.0553 30.9599 38.0004 30.9415 37.982C30.7766 37.8904 30.6117 37.7988 30.4468 37.6888C26.91 35.5998 23.3549 33.4924 19.8182 31.4033C19.7999 31.385 19.7632 31.3667 19.7266 31.3483Z" fill="#62688F"/>
<path d="M42.2646 33.5107H42.2829C42.2829 33.5474 42.2462 33.584 42.2279 33.6207C38.8561 38.3669 35.4843 43.1314 32.1124 47.8776C31.7643 48.3724 31.3978 48.8672 31.0496 49.362C31.0313 49.3436 31.0312 49.3253 31.0312 49.307V49.1971V40.3094V40.1444C31.8009 39.6863 32.5522 39.2465 33.3219 38.7884C36.2906 37.0292 39.2592 35.2883 42.2096 33.5291C42.2279 33.5474 42.2462 33.5291 42.2646 33.5107Z" fill="#62688F"/>
<path d="M31.0327 26.2174V26.1807V26.0708V12.7667C31.0327 12.7117 31.0144 12.6751 31.0511 12.6201C34.7711 18.7957 38.4911 24.9529 42.1927 31.1285C42.2294 31.1835 42.2844 31.2568 42.3027 31.3301C42.0461 31.2384 41.8079 31.1102 41.5697 31.0002C41.2765 30.8719 40.965 30.7253 40.6718 30.5971C40.4885 30.5054 40.2869 30.4321 40.1037 30.3405C39.7922 30.1939 39.4806 30.0656 39.1691 29.919C38.9858 29.8457 38.8026 29.7541 38.6193 29.6625L37.4099 29.1127C37.2083 29.0211 37.0067 28.9295 36.7868 28.8378L35.9072 28.453C35.724 28.3797 35.5407 28.2881 35.3575 28.1965L34.148 27.6467C33.9464 27.5551 33.7449 27.4635 33.525 27.3718L32.6454 26.987C32.4438 26.8954 32.2605 26.8038 32.059 26.7121C31.7108 26.5472 31.3626 26.3823 30.9961 26.2357C31.0511 26.2174 31.0327 26.2174 31.0327 26.2174Z" fill="#62688F"/>
</g>
<defs>
<filter id="filter0_b_201_116739" x="-34.8984" y="-34.9004" width="131.801" height="131.8" filterUnits="userSpaceOnUse" color-interpolation-filters="sRGB">
<feFlood flood-opacity="0" result="BackgroundImageFix"/>
<feGaussianBlur in="BackgroundImageFix" stdDeviation="19"/>
<feComposite in2="SourceAlpha" operator="in" result="effect1_backgroundBlur_201_116739"/>
<feBlend mode="normal" in="SourceGraphic" in2="effect1_backgroundBlur_201_116739" result="shape"/>
</filter>
<clipPath id="clip0_201_116739">
<rect width="37.2" height="37.2" fill="white" transform="translate(12.3984 12.4004)"/>
</clipPath>
</defs>
</svg>
