<svg width="16" height="16" viewBox="0 0 16 16" fill="none" xmlns="http://www.w3.org/2000/svg">
<path d="M8 0.25C12.2812 0.25 15.75 3.71875 15.75 8C15.75 12.2812 12.2812 15.75 8 15.75C3.71875 15.75 0.25 12.2812 0.25 8C0.25 3.71875 3.71875 0.25 8 0.25ZM14.0312 5C13.2188 3.40625 11.8125 2.1875 10.0938 1.59375C10.6875 2.4375 11.1562 3.625 11.4375 5H14.0312ZM10.75 8C10.75 7.3125 10.6875 6.625 10.5938 6H5.375C5.28125 6.625 5.25 7.3125 5.25 8C5.25 8.71875 5.28125 9.40625 5.375 10H10.5938C10.6875 9.40625 10.75 8.71875 10.75 8ZM8 1.25C7.15625 1.25 6.0625 2.65625 5.53125 5H10.4375C9.90625 2.65625 8.8125 1.25 8 1.25ZM5.875 1.59375C4.15625 2.1875 2.75 3.40625 1.9375 5H4.53125C4.8125 3.625 5.28125 2.4375 5.875 1.59375ZM1.25 8C1.25 8.71875 1.34375 9.375 1.53125 10H4.375C4.28125 9.375 4.25 8.71875 4.25 8C4.25 7.3125 4.28125 6.65625 4.375 6H1.53125C1.34375 6.65625 1.25 7.3125 1.25 8ZM1.9375 11C2.75 12.625 4.15625 13.8438 5.875 14.4375C5.28125 13.5938 4.8125 12.4062 4.53125 11H1.9375ZM8 14.75C8.8125 14.75 9.90625 13.375 10.4375 11H5.53125C6.0625 13.375 7.15625 14.75 8 14.75ZM10.0938 14.4375C11.8125 13.8438 13.2188 12.625 14.0312 11H11.4375C11.1562 12.4062 10.6875 13.5938 10.0938 14.4375ZM11.5938 10H14.4375C14.625 9.375 14.75 8.71875 14.75 8C14.75 7.3125 14.625 6.65625 14.4375 6H11.5938C11.6875 6.65625 11.75 7.3125 11.75 8C11.75 8.71875 11.6875 9.375 11.5938 10Z" fill="white"/>
</svg>
