<svg width="19" height="16" viewBox="0 0 19 16" fill="none" xmlns="http://www.w3.org/2000/svg">
<path d="M17.2188 2C17.7188 2 18.0625 2.46875 17.9688 2.9375L16.5625 9.4375C16.4688 9.78125 16.1875 10 15.8125 10H6.0625L6.34375 11.5H15.1562C15.6562 11.5 16 11.9688 15.9062 12.4375L15.875 12.5625C16.25 12.9375 16.5 13.4375 16.5 14C16.5 15.125 15.5938 16 14.5 16C13.375 16 12.5 15.125 12.5 14C12.5 13.6562 12.5938 13.3125 12.75 13H8.21875C8.375 13.3125 8.5 13.6562 8.5 14C8.5 15.125 7.59375 16 6.5 16C5.375 16 4.5 15.125 4.5 14C4.5 13.4688 4.6875 13 5.03125 12.625L2.875 1.5H0.375C0.15625 1.5 0 1.34375 0 1.125V0.375C0 0.1875 0.15625 0 0.375 0H3.5C3.84375 0 4.15625 0.28125 4.21875 0.625L4.5 2H17.2188ZM6.5 14.75C6.90625 14.75 7.25 14.4375 7.25 14C7.25 13.5938 6.90625 13.25 6.5 13.25C6.0625 13.25 5.75 13.5938 5.75 14C5.75 14.4375 6.0625 14.75 6.5 14.75ZM14.5 14.75C14.9062 14.75 15.25 14.4375 15.25 14C15.25 13.5938 14.9062 13.25 14.5 13.25C14.0625 13.25 13.75 13.5938 13.75 14C13.75 14.4375 14.0625 14.75 14.5 14.75ZM15.2188 8.5L16.3125 3.5H4.78125L5.75 8.5H15.2188Z" fill="white"/>
</svg>
