<svg width="16" height="16" viewBox="0 0 16 16" fill="none" xmlns="http://www.w3.org/2000/svg">
<path fill-rule="evenodd" clip-rule="evenodd" d="M14.8507 8.35882C14.6624 8.34911 14.5185 8.18854 14.5185 8C14.5185 7.81146 14.6624 7.65089 14.8507 7.64118L15.5721 7.60397C15.8025 7.59209 16 7.7693 16 8C16 8.2307 15.8025 8.40791 15.5721 8.39602L14.8507 8.35882ZM13.6459 4.73981C13.7403 4.90297 13.9454 4.97052 14.1133 4.8848L14.7556 4.55688C14.9617 4.45166 15.0441 4.19807 14.9282 3.99779C14.8123 3.7975 14.5521 3.74368 14.3581 3.86989L13.7536 4.26322C13.5956 4.36604 13.5515 4.57665 13.6459 4.73981ZM11.2602 2.35408C11.4233 2.4485 11.634 2.40435 11.7368 2.24635L12.1301 1.64189C12.2563 1.44794 12.2025 1.18772 12.0022 1.07182C11.8019 0.955922 11.5483 1.03834 11.4431 1.24443L11.1152 1.88673C11.0295 2.05462 11.097 2.25966 11.2602 2.35408ZM8 1.48148C8.18854 1.48148 8.34911 1.33762 8.35882 1.14933L8.39602 0.427914C8.40791 0.197518 8.2307 0 8 0C7.7693 0 7.59209 0.197518 7.60397 0.427914L7.64118 1.14932C7.65089 1.33762 7.81146 1.48148 8 1.48148ZM4.73981 2.35408C4.90297 2.25966 4.97052 2.05462 4.8848 1.88673L4.55688 1.24443C4.45166 1.03834 4.19807 0.955922 3.99779 1.07182C3.7975 1.18772 3.74368 1.44794 3.86989 1.64189L4.26322 2.24635C4.36604 2.40435 4.57665 2.4485 4.73981 2.35408ZM2.35408 4.73981C2.4485 4.57665 2.40435 4.36604 2.24635 4.26322L1.64189 3.86989C1.44794 3.74368 1.18772 3.7975 1.07182 3.99779C0.955922 4.19807 1.03834 4.45166 1.24443 4.55688L1.88673 4.8848C2.05462 4.97052 2.25966 4.90297 2.35408 4.73981ZM1.14933 7.64118C1.33762 7.65089 1.48148 7.81146 1.48148 8C1.48148 8.18854 1.33762 8.34911 1.14932 8.35882L0.427914 8.39603C0.197518 8.40791 0 8.2307 0 8C0 7.7693 0.197518 7.59209 0.427914 7.60398L1.14933 7.64118ZM2.35408 11.2602C2.25966 11.097 2.05462 11.0295 1.88673 11.1152L1.24443 11.4431C1.03834 11.5483 0.955922 11.8019 1.07182 12.0022C1.18772 12.2025 1.44794 12.2563 1.6419 12.1301L2.24635 11.7368C2.40435 11.634 2.4485 11.4233 2.35408 11.2602ZM4.73981 13.6459C4.57665 13.5515 4.36604 13.5956 4.26322 13.7536L3.86989 14.3581C3.74368 14.5521 3.7975 14.8123 3.99779 14.9282C4.19807 15.0441 4.45166 14.9617 4.55688 14.7556L4.8848 14.1133C4.97052 13.9454 4.90297 13.7403 4.73981 13.6459ZM8 14.5185C7.81146 14.5185 7.65089 14.6624 7.64118 14.8507L7.60398 15.5721C7.59209 15.8025 7.7693 16 8 16C8.2307 16 8.40791 15.8025 8.39603 15.5721L8.35882 14.8507C8.34911 14.6624 8.18854 14.5185 8 14.5185ZM11.2602 13.6459C11.097 13.7403 11.0295 13.9454 11.1152 14.1133L11.4431 14.7556C11.5483 14.9617 11.8019 15.0441 12.0022 14.9282C12.2025 14.8123 12.2563 14.5521 12.1301 14.3581L11.7368 13.7536C11.634 13.5956 11.4233 13.5515 11.2602 13.6459ZM13.6459 11.2602C13.5515 11.4233 13.5956 11.634 13.7536 11.7368L14.3581 12.1301C14.5521 12.2563 14.8123 12.2025 14.9282 12.0022C15.0441 11.8019 14.9617 11.5483 14.7556 11.4431L14.1133 11.1152C13.9454 11.0295 13.7403 11.097 13.6459 11.2602Z" fill="white"/>
<path d="M13.4815 8.00004C13.4815 11.0274 11.0274 13.4815 8.00004 13.4815C4.9727 13.4815 2.51855 11.0274 2.51855 8.00004C2.51855 4.9727 4.9727 2.51855 8.00004 2.51855C11.0274 2.51855 13.4815 4.9727 13.4815 8.00004Z" fill="white"/>
</svg>
