<svg width="16" height="14" viewBox="0 0 16 14" fill="none" xmlns="http://www.w3.org/2000/svg">
<path d="M14 2.5C15.0938 2.5 16 3.40625 16 4.5V12C16 13.125 15.0938 14 14 14H3C1.3125 14 0 12.6875 0 11V3C0 1.34375 1.3125 0 3 0H12C13.0938 0 14 0.90625 14 2V2.5ZM14.5 12V4.5C14.5 4.25 14.25 4 14 4H3.5C3.21875 4 3 3.78125 3 3.5C3 3.25 3.21875 3 3.5 3H12.5V2C12.5 1.75 12.25 1.5 12 1.5H3C2.15625 1.5 1.5 2.1875 1.5 3V11C1.5 11.8438 2.15625 12.5 3 12.5H14C14.25 12.5 14.5 12.2812 14.5 12ZM12 7C12.5312 7 13 7.46875 13 8C13 8.5625 12.5312 9 12 9C11.4375 9 11 8.5625 11 8C11 7.46875 11.4375 7 12 7Z" fill="#0A0A0B"/>
</svg>
