<svg width="17" height="16" viewBox="0 0 17 16" fill="none" xmlns="http://www.w3.org/2000/svg">
<path d="M8.66406 0.25C12.9141 0.25 16.4141 3.75 16.4141 8C16.4141 12.2812 12.9141 15.75 8.66406 15.75C4.38281 15.75 0.914062 12.2812 0.914062 8C0.914062 3.75 4.38281 0.25 8.66406 0.25ZM13.9141 3.8125C13.6016 3.40625 13.2578 3.0625 12.8516 2.75L10.8828 4.71875C11.3203 5 11.6641 5.34375 11.9453 5.78125L13.9141 3.8125ZM8.66406 11C10.2891 11 11.6641 9.65625 11.6641 8C11.6641 6.375 10.2891 5 8.66406 5C7.00781 5 5.66406 6.375 5.66406 8C5.66406 9.65625 7.00781 11 8.66406 11ZM12.0078 2.15625C9.94531 0.96875 7.35156 0.96875 5.28906 2.15625L7.35156 4.21875C8.19531 3.9375 9.10156 3.9375 9.94531 4.21875L12.0078 2.15625ZM4.44531 2.75C4.03906 3.0625 3.69531 3.40625 3.38281 3.8125L5.35156 5.78125C5.63281 5.34375 5.97656 5 6.41406 4.71875L4.44531 2.75ZM2.78906 4.65625C1.60156 6.71875 1.60156 9.3125 2.78906 11.375L4.85156 9.3125C4.57031 8.46875 4.57031 7.5625 4.85156 6.71875L2.78906 4.65625ZM3.38281 12.2188C3.69531 12.625 4.03906 12.9688 4.44531 13.2812L6.41406 11.3125C5.97656 11.0312 5.63281 10.6875 5.35156 10.25L3.38281 12.2188ZM5.28906 13.875C7.35156 15.0625 9.94531 15.0625 12.0078 13.875L9.94531 11.8125C9.10156 12.0938 8.19531 12.0938 7.35156 11.8125L5.28906 13.875ZM12.8516 13.2812C13.2578 12.9688 13.6016 12.625 13.9141 12.2188L11.9453 10.25C11.6641 10.6875 11.3203 11.0312 10.8828 11.3125L12.8516 13.2812ZM14.5078 11.375C15.6953 9.3125 15.6953 6.71875 14.5078 4.65625L12.4453 6.71875C12.7266 7.5625 12.7266 8.46875 12.4453 9.3125L14.5078 11.375Z" fill="white"/>
</svg>
