<svg width="21" height="16" viewBox="0 0 21 16" fill="none" xmlns="http://www.w3.org/2000/svg">
<path d="M6.46875 2C6.71875 2 6.96875 2.25 6.96875 2.5V5.5C6.96875 5.78125 6.71875 6 6.46875 6H3.46875C3.1875 6 2.96875 5.78125 2.96875 5.5V2.5C2.96875 2.25 3.1875 2 3.46875 2H6.46875ZM5.96875 5V3H3.96875V5H5.96875ZM14.9688 4.5C14.9688 4.25 14.7188 4 14.4688 4H9.96875V3H14.4688C15.2812 3 15.9688 3.6875 15.9688 4.5V7H14.9688V4.5ZM18.4688 10C18.7188 10 18.9688 10.25 18.9688 10.5V13.5C18.9688 13.7812 18.7188 14 18.4688 14H15.4688C15.1875 14 14.9688 13.7812 14.9688 13.5V10.5C14.9688 10.25 15.1875 10 15.4688 10H18.4688ZM17.9688 13V11H15.9688V13H17.9688ZM19.4688 8C20.2812 8 20.9688 8.6875 20.9688 9.5V14.5C20.9688 15.3438 20.2812 16 19.4688 16H14.4688C13.625 16 12.9688 15.3438 12.9688 14.5V9.5C12.9688 8.6875 13.625 8 14.4688 8H19.4688ZM19.9688 14.5V9.5C19.9688 9.25 19.7188 9 19.4688 9H14.4688C14.1875 9 13.9688 9.25 13.9688 9.5V14.5C13.9688 14.7812 14.1875 15 14.4688 15H19.4688C19.7188 15 19.9688 14.7812 19.9688 14.5ZM6.96875 11.5C6.96875 11.7812 7.1875 12 7.46875 12H11.9688V13H7.46875C6.625 13 5.96875 12.3438 5.96875 11.5V9H6.96875V11.5ZM8.96875 6.5C8.96875 7.34375 8.28125 8 7.46875 8H2.46875C1.625 8 0.96875 7.34375 0.96875 6.5V1.5C0.96875 0.6875 1.625 0 2.46875 0H7.46875C8.28125 0 8.96875 0.6875 8.96875 1.5V6.5ZM1.96875 6.5C1.96875 6.78125 2.1875 7 2.46875 7H7.46875C7.71875 7 7.96875 6.78125 7.96875 6.5V1.5C7.96875 1.25 7.71875 1 7.46875 1H2.46875C2.1875 1 1.96875 1.25 1.96875 1.5V6.5Z" fill="white"/>
</svg>
