<svg width="17" height="17" viewBox="0 0 17 17" fill="none" xmlns="http://www.w3.org/2000/svg">
<path d="M16.5703 7.875C16.6016 7.875 16.6641 7.9375 16.6641 8C16.6641 8.0625 16.6016 8.125 16.5703 8.15625L15.3203 8.6875L14.7891 9.90625C14.7578 9.96875 14.7266 10 14.6641 10C14.5703 10 14.5391 9.96875 14.5078 9.90625L13.9766 8.6875L12.7266 8.15625C12.6953 8.125 12.6641 8.0625 12.6641 8C12.6641 7.9375 12.6953 7.875 12.7266 7.875L13.9766 7.34375L14.5078 6.09375C14.5391 6.03125 14.5703 6 14.6641 6C14.7266 6 14.7578 6.03125 14.7891 6.09375L15.3203 7.34375L16.5703 7.875ZM12.0391 9.375C12.6328 9.4375 12.8516 10.1875 12.4453 10.5938L10.0703 12.9062L10.6328 16.1875C10.6328 16.2188 10.6328 16.25 10.6328 16.2812C10.6328 16.6875 10.3203 17 9.91406 17C9.78906 17 9.66406 16.9688 9.57031 16.9375L6.63281 15.375L3.72656 16.9375C3.60156 17 3.50781 17 3.38281 17C2.97656 17 2.66406 16.6875 2.66406 16.3125C2.66406 16.25 2.66406 16.2188 2.66406 16.1875L3.22656 12.9062L0.851562 10.5938C0.445312 10.1875 0.664062 9.4375 1.25781 9.375L4.53906 8.875L6.00781 5.90625C6.10156 5.65625 6.35156 5.5 6.63281 5.5C6.63281 5.5 6.63281 5.5 6.66406 5.5C6.94531 5.5 7.16406 5.65625 7.28906 5.90625L8.75781 8.875L12.0391 9.375ZM8.97656 12.5625L11.3203 10.2812L8.10156 9.8125L6.63281 6.875L5.19531 9.8125L1.97656 10.2812L4.28906 12.5625L3.75781 15.7812L6.63281 14.25L9.53906 15.7812L8.97656 12.5625ZM13.8828 3.5625C14.0391 3.625 14.1641 3.8125 14.1641 4C14.1641 4.1875 14.0391 4.375 13.8828 4.4375L12.3516 5.21875L11.6016 6.71875C11.5078 6.90625 11.3516 7 11.1641 7C10.9453 7 10.7891 6.90625 10.6953 6.71875L9.94531 5.21875L8.41406 4.4375C8.25781 4.375 8.16406 4.1875 8.16406 4C8.16406 3.8125 8.25781 3.625 8.41406 3.5625L9.94531 2.78125L10.6953 1.28125C10.8828 0.9375 11.4141 0.9375 11.6016 1.28125L12.3516 2.8125L13.8828 3.5625ZM11.7578 4.375L12.5391 4L11.7578 3.625C11.6641 3.5625 11.5703 3.5 11.5391 3.375L11.1641 2.625L10.7578 3.375C10.7266 3.5 10.6328 3.5625 10.5391 3.625L9.75781 4L10.5391 4.375C10.6328 4.4375 10.7266 4.53125 10.7578 4.625L11.1641 5.375L11.5391 4.625C11.5703 4.53125 11.6641 4.4375 11.7578 4.375Z" fill="white"/>
</svg>
