<svg width="232" height="232" viewBox="0 0 232 232" fill="none" xmlns="http://www.w3.org/2000/svg">
<g filter="url(#filter0_d_2322_200850)">
<g opacity="0.8" filter="url(#filter1_f_2322_200850)">
<path d="M146.559 146.558C150.572 142.545 153.756 137.781 155.927 132.537C158.099 127.294 159.217 121.674 159.217 115.999C159.217 110.324 158.099 104.704 155.927 99.4606C153.756 94.2172 150.572 89.453 146.559 85.4399C142.546 81.4269 137.782 78.2435 132.538 76.0717C127.295 73.8998 121.675 72.782 116 72.782C110.325 72.782 104.705 73.8998 99.4615 76.0717C94.2182 78.2435 89.454 81.4269 85.4409 85.44L116 115.999L146.559 146.558Z" fill="#55f795"/>
</g>
<g opacity="0.8" filter="url(#filter2_f_2322_200850)">
<path d="M85.4409 85.4399C81.4278 89.453 78.2445 94.2172 76.0726 99.4605C73.9008 104.704 72.7829 110.324 72.7829 115.999C72.7829 121.674 73.9008 127.294 76.0726 132.537C78.2445 137.781 81.4278 142.545 85.4409 146.558C89.454 150.571 94.2182 153.755 99.4615 155.926C104.705 158.098 110.325 159.216 116 159.216C121.675 159.216 127.295 158.098 132.538 155.926C137.782 153.755 142.546 150.571 146.559 146.558L116 115.999L85.4409 85.4399Z" fill="#FFA800"/>
</g>
<rect x="79.9219" y="143.244" width="109.718" height="40.5" rx="10" fill="#1D2025"/>
<rect opacity="0.12" x="85.8125" y="149.135" width="28.7182" height="28.7182" rx="6" fill="white"/>
<mask id="mask0_2322_200850" style="mask-type:alpha" maskUnits="userSpaceOnUse" x="85" y="149" width="30" height="29">
<rect x="85.8125" y="149.135" width="28.7182" height="28.7182" rx="6" fill="#ECEEF0"/>
</mask>
<g mask="url(#mask0_2322_200850)">
<path opacity="0.12" d="M78.4453 179.325L91.6866 158.411C92.0525 157.833 92.8776 157.785 93.3083 158.316L103.148 170.456C103.532 170.929 104.245 170.953 104.659 170.506L109.953 164.792C110.392 164.318 111.159 164.379 111.518 164.916L121.154 179.325H78.4453Z" fill="white"/>
<path opacity="0.12" d="M107.166 156.866C107.166 157.522 106.972 158.162 106.608 158.707C106.244 159.252 105.726 159.677 105.121 159.928C104.515 160.179 103.849 160.244 103.206 160.116C102.563 159.988 101.973 159.673 101.51 159.209C101.046 158.746 100.731 158.156 100.603 157.513C100.475 156.87 100.54 156.204 100.791 155.598C101.042 154.993 101.467 154.475 102.012 154.111C102.557 153.747 103.197 153.553 103.853 153.553C104.732 153.553 105.574 153.902 106.196 154.523C106.817 155.145 107.166 155.988 107.166 156.866Z" fill="white"/>
</g>
<rect opacity="0.12" x="124.844" y="157.234" width="32.4" height="2.94545" rx="1.47272" fill="white"/>
<rect opacity="0.12" x="124.844" y="166.809" width="32.4" height="2.94545" rx="1.47272" fill="white"/>
<g opacity="0.4">
<path d="M172.778 157.648C173.054 157.096 173.836 157.119 174.089 157.648L175.608 160.708L178.968 161.192C179.566 161.284 179.796 162.02 179.359 162.457L176.943 164.827L177.518 168.164C177.61 168.762 176.966 169.223 176.436 168.946L173.445 167.359L170.43 168.946C169.901 169.223 169.257 168.762 169.349 168.164L169.924 164.827L167.508 162.457C167.071 162.02 167.301 161.284 167.899 161.192L171.282 160.708L172.778 157.648Z" fill="#797F8A"/>
</g>
<rect x="79.9219" y="47.5176" width="109.718" height="40.5" rx="10" fill="#1D2025"/>
<rect opacity="0.12" x="85.8125" y="53.4082" width="28.7182" height="28.7182" rx="6" fill="white"/>
<mask id="mask1_2322_200850" style="mask-type:alpha" maskUnits="userSpaceOnUse" x="85" y="53" width="30" height="30">
<rect x="85.8125" y="53.4082" width="28.7182" height="28.7182" rx="6" fill="#ECEEF0"/>
</mask>
<g mask="url(#mask1_2322_200850)">
<path opacity="0.12" d="M78.4453 83.5987L91.6866 62.6844C92.0525 62.1064 92.8776 62.0582 93.3083 62.5896L103.148 74.7295C103.532 75.2023 104.245 75.226 104.659 74.7794L109.953 69.0654C110.392 68.5915 111.159 68.6521 111.518 69.1892L121.154 83.5987H78.4453Z" fill="white"/>
<path opacity="0.12" d="M107.166 61.1398C107.166 61.7952 106.972 62.4359 106.608 62.9808C106.244 63.5257 105.726 63.9504 105.121 64.2012C104.515 64.452 103.849 64.5176 103.206 64.3898C102.563 64.2619 101.973 63.9463 101.51 63.4829C101.046 63.0195 100.731 62.4291 100.603 61.7863C100.475 61.1435 100.54 60.4772 100.791 59.8717C101.042 59.2662 101.467 58.7487 102.012 58.3846C102.557 58.0205 103.197 57.8262 103.853 57.8262C104.732 57.8262 105.574 58.1753 106.196 58.7967C106.817 59.4181 107.166 60.261 107.166 61.1398Z" fill="white"/>
</g>
<rect opacity="0.12" x="124.844" y="61.5078" width="32.4" height="2.94546" rx="1.47273" fill="white"/>
<rect opacity="0.12" x="124.844" y="71.082" width="32.4" height="2.94545" rx="1.47273" fill="white"/>
<g opacity="0.4">
<path d="M172.778 61.9212C173.054 61.369 173.836 61.392 174.089 61.9212L175.608 64.9818L178.968 65.465C179.566 65.557 179.796 66.2934 179.359 66.7306L176.943 69.1008L177.518 72.4374C177.61 73.0357 176.966 73.496 176.436 73.2198L173.445 71.632L170.43 73.2198C169.901 73.496 169.257 73.0357 169.349 72.4374L169.924 69.1008L167.508 66.7306C167.071 66.2934 167.301 65.557 167.899 65.465L171.282 64.9818L172.778 61.9212Z" fill="#797F8A"/>
</g>
<rect x="43.1016" y="95.3809" width="109.718" height="40.5" rx="10" fill="#1D2025"/>
<rect opacity="0.12" x="48.9922" y="101.271" width="28.7182" height="28.7182" rx="6" fill="white"/>
<mask id="mask2_2322_200850" style="mask-type:alpha" maskUnits="userSpaceOnUse" x="48" y="101" width="30" height="29">
<rect x="48.9922" y="101.271" width="28.7182" height="28.7182" rx="6" fill="#ECEEF0"/>
</mask>
<g mask="url(#mask2_2322_200850)">
<path opacity="0.12" d="M41.625 131.462L54.8663 110.548C55.2322 109.97 56.0573 109.922 56.488 110.453L66.328 122.593C66.7113 123.066 67.4247 123.089 67.8384 122.643L73.1331 116.929C73.5722 116.455 74.3387 116.515 74.6978 117.052L84.3341 131.462H41.625Z" fill="white"/>
<path opacity="0.12" d="M70.346 109.003C70.346 109.658 70.1517 110.299 69.7876 110.844C69.4235 111.389 68.906 111.814 68.3005 112.064C67.695 112.315 67.0287 112.381 66.3859 112.253C65.7431 112.125 65.1527 111.81 64.6893 111.346C64.2259 110.883 63.9103 110.292 63.7824 109.65C63.6546 109.007 63.7202 108.34 63.971 107.735C64.2218 107.13 64.6465 106.612 65.1914 106.248C65.7364 105.884 66.377 105.689 67.0324 105.689C67.9112 105.689 68.7541 106.039 69.3755 106.66C69.9969 107.281 70.346 108.124 70.346 109.003Z" fill="white"/>
</g>
<rect opacity="0.12" x="88.0234" y="109.371" width="32.4" height="2.94546" rx="1.47273" fill="white"/>
<rect opacity="0.12" x="88.0234" y="118.945" width="32.4" height="2.94545" rx="1.47272" fill="white"/>
<path d="M135.957 109.785C136.233 109.232 137.016 109.255 137.269 109.785L138.788 112.845L142.147 113.328C142.746 113.42 142.976 114.157 142.539 114.594L140.122 116.964L140.698 120.301C140.79 120.899 140.145 121.359 139.616 121.083L136.625 119.495L133.61 121.083C133.081 121.359 132.437 120.899 132.529 120.301L133.104 116.964L130.688 114.594C130.25 114.157 130.481 113.42 131.079 113.328L134.462 112.845L135.957 109.785Z" fill="#FAC402"/>
<g filter="url(#filter3_d_2322_200850)">
<path d="M142.759 133.93C142.501 133.598 142.179 132.926 141.617 132.089C141.295 131.628 140.504 130.754 140.264 130.303C140.092 130.029 140.042 129.695 140.126 129.383C140.271 128.788 140.834 128.394 141.442 128.462C141.913 128.557 142.345 128.787 142.685 129.125C142.923 129.349 143.141 129.592 143.339 129.852C143.486 130.036 143.523 130.11 143.688 130.321C143.854 130.533 143.964 130.745 143.882 130.432C143.817 129.972 143.707 129.198 143.55 128.508C143.431 127.983 143.403 127.901 143.292 127.505C143.182 127.109 143.118 126.778 142.998 126.327C142.889 125.883 142.803 125.435 142.74 124.983C142.624 124.404 142.709 123.804 142.98 123.28C143.301 122.977 143.773 122.898 144.176 123.077C144.582 123.377 144.884 123.795 145.041 124.274C145.283 124.863 145.444 125.483 145.52 126.115C145.667 127.035 145.953 128.379 145.962 128.655C145.962 128.315 145.897 127.597 145.962 127.275C146.026 126.939 146.259 126.66 146.579 126.538C146.853 126.454 147.143 126.435 147.425 126.483C147.711 126.543 147.963 126.707 148.134 126.943C148.347 127.48 148.466 128.05 148.484 128.628C148.509 128.122 148.595 127.621 148.742 127.137C148.895 126.92 149.12 126.764 149.377 126.695C149.681 126.639 149.993 126.639 150.297 126.695C150.547 126.778 150.765 126.936 150.923 127.146C151.118 127.634 151.236 128.149 151.273 128.674C151.273 128.803 151.337 128.315 151.54 127.993C151.645 127.68 151.909 127.448 152.232 127.383C152.555 127.318 152.889 127.43 153.106 127.677C153.324 127.925 153.394 128.269 153.289 128.582C153.289 129.18 153.289 129.152 153.289 129.557C153.289 129.962 153.289 130.321 153.289 130.662C153.255 131.201 153.181 131.736 153.068 132.264C152.908 132.73 152.685 133.173 152.405 133.58C151.958 134.077 151.589 134.638 151.31 135.246C151.24 135.548 151.209 135.857 151.218 136.166C151.217 136.452 151.254 136.737 151.328 137.013C150.952 137.053 150.572 137.053 150.196 137.013C149.837 136.958 149.395 136.24 149.275 136.019C149.216 135.9 149.095 135.825 148.962 135.825C148.83 135.825 148.709 135.9 148.65 136.019C148.447 136.369 147.996 137.004 147.683 137.041C147.066 137.114 145.796 137.041 144.793 137.041C144.793 137.041 144.959 136.12 144.581 135.789C144.204 135.458 143.817 135.071 143.532 134.813L142.759 133.93Z" fill="white"/>
<path fill-rule="evenodd" clip-rule="evenodd" d="M142.759 133.93C142.501 133.598 142.179 132.926 141.617 132.089C141.295 131.628 140.504 130.754 140.264 130.303C140.092 130.029 140.042 129.695 140.126 129.383C140.271 128.788 140.834 128.394 141.442 128.462C141.913 128.557 142.345 128.787 142.685 129.125C142.923 129.349 143.141 129.592 143.339 129.852C143.486 130.036 143.523 130.11 143.688 130.321C143.854 130.533 143.964 130.745 143.882 130.432C143.817 129.972 143.707 129.198 143.55 128.508C143.431 127.983 143.403 127.901 143.292 127.505C143.182 127.109 143.118 126.778 142.998 126.327C142.889 125.883 142.803 125.435 142.74 124.983C142.624 124.404 142.709 123.804 142.98 123.28C143.301 122.977 143.773 122.898 144.176 123.077C144.582 123.377 144.884 123.795 145.041 124.274C145.283 124.863 145.444 125.483 145.52 126.115C145.667 127.035 145.953 128.379 145.962 128.655C145.962 128.315 145.897 127.597 145.962 127.275C146.026 126.939 146.259 126.66 146.579 126.538C146.853 126.454 147.143 126.435 147.425 126.483C147.711 126.543 147.963 126.707 148.134 126.943C148.347 127.48 148.466 128.05 148.484 128.628C148.509 128.122 148.595 127.621 148.742 127.137C148.895 126.92 149.12 126.764 149.377 126.695C149.681 126.639 149.993 126.639 150.297 126.695C150.547 126.778 150.765 126.936 150.923 127.146C151.118 127.634 151.236 128.149 151.273 128.674C151.273 128.803 151.337 128.315 151.54 127.993C151.645 127.68 151.909 127.448 152.232 127.383C152.555 127.318 152.889 127.43 153.106 127.677C153.324 127.925 153.394 128.269 153.289 128.582C153.289 129.18 153.289 129.152 153.289 129.557C153.289 129.962 153.289 130.321 153.289 130.662C153.255 131.201 153.181 131.736 153.068 132.264C152.908 132.73 152.685 133.173 152.405 133.58C151.958 134.077 151.589 134.638 151.31 135.246C151.24 135.548 151.209 135.857 151.218 136.166C151.217 136.452 151.254 136.737 151.328 137.013C150.952 137.053 150.572 137.053 150.196 137.013C149.837 136.958 149.395 136.24 149.275 136.019C149.216 135.9 149.095 135.825 148.962 135.825C148.83 135.825 148.709 135.9 148.65 136.019C148.447 136.369 147.996 137.004 147.683 137.041C147.066 137.114 145.796 137.041 144.793 137.041C144.793 137.041 144.959 136.12 144.581 135.789C144.204 135.458 143.817 135.071 143.532 134.813L142.759 133.93Z" stroke="black" stroke-width="0.75" stroke-linecap="round" stroke-linejoin="round"/>
<path d="M150.565 134.432V131.255C150.565 131.064 150.411 130.91 150.22 130.91C150.03 130.91 149.875 131.064 149.875 131.255V134.432C149.875 134.622 150.03 134.776 150.22 134.776C150.411 134.776 150.565 134.622 150.565 134.432Z" fill="black"/>
<path d="M148.74 134.431L148.722 131.252C148.72 131.062 148.565 130.909 148.374 130.91C148.184 130.911 148.03 131.066 148.031 131.256L148.05 134.435C148.051 134.624 148.206 134.777 148.397 134.776C148.587 134.775 148.741 134.62 148.74 134.431Z" fill="black"/>
<path d="M146.195 131.259L146.214 134.431C146.215 134.623 146.37 134.777 146.561 134.776C146.752 134.775 146.905 134.619 146.904 134.427L146.886 131.255C146.885 131.063 146.729 130.909 146.538 130.91C146.348 130.911 146.194 131.067 146.195 131.259Z" fill="black"/>
</g>
</g>
<defs>
<filter id="filter0_d_2322_200850" x="31" y="35" width="170" height="170" filterUnits="userSpaceOnUse" color-interpolation-filters="sRGB">
<feFlood flood-opacity="0" result="BackgroundImageFix"/>
<feColorMatrix in="SourceAlpha" type="matrix" values="0 0 0 0 0 0 0 0 0 0 0 0 0 0 0 0 0 0 127 0" result="hardAlpha"/>
<feOffset dy="4"/>
<feGaussianBlur stdDeviation="2"/>
<feComposite in2="hardAlpha" operator="out"/>
<feColorMatrix type="matrix" values="0 0 0 0 0 0 0 0 0 0 0 0 0 0 0 0 0 0 0.25 0"/>
<feBlend mode="normal" in2="BackgroundImageFix" result="effect1_dropShadow_2322_200850"/>
<feBlend mode="normal" in="SourceGraphic" in2="effect1_dropShadow_2322_200850" result="shape"/>
</filter>
<filter id="filter1_f_2322_200850" x="13.4375" y="0.78125" width="217.781" height="217.777" filterUnits="userSpaceOnUse" color-interpolation-filters="sRGB">
<feFlood flood-opacity="0" result="BackgroundImageFix"/>
<feBlend mode="normal" in="SourceGraphic" in2="BackgroundImageFix" result="shape"/>
<feGaussianBlur stdDeviation="36" result="effect1_foregroundBlur_2322_200850"/>
</filter>
<filter id="filter2_f_2322_200850" x="0.78125" y="13.4395" width="217.781" height="217.777" filterUnits="userSpaceOnUse" color-interpolation-filters="sRGB">
<feFlood flood-opacity="0" result="BackgroundImageFix"/>
<feBlend mode="normal" in="SourceGraphic" in2="BackgroundImageFix" result="shape"/>
<feGaussianBlur stdDeviation="36" result="effect1_foregroundBlur_2322_200850"/>
</filter>
<filter id="filter3_d_2322_200850" x="138.911" y="122.607" width="15.6" height="16.6418" filterUnits="userSpaceOnUse" color-interpolation-filters="sRGB">
<feFlood flood-opacity="0" result="BackgroundImageFix"/>
<feColorMatrix in="SourceAlpha" type="matrix" values="0 0 0 0 0 0 0 0 0 0 0 0 0 0 0 0 0 0 127 0" result="hardAlpha"/>
<feOffset dy="1"/>
<feGaussianBlur stdDeviation="0.4"/>
<feColorMatrix type="matrix" values="0 0 0 0 0 0 0 0 0 0 0 0 0 0 0 0 0 0 0.5 0"/>
<feBlend mode="normal" in2="BackgroundImageFix" result="effect1_dropShadow_2322_200850"/>
<feBlend mode="normal" in="SourceGraphic" in2="effect1_dropShadow_2322_200850" result="shape"/>
</filter>
</defs>
</svg>
