<svg width="20" height="20" viewBox="0 0 20 20" fill="none" xmlns="http://www.w3.org/2000/svg">
<g filter="url(#filter0_b_1751_4082)">
<circle cx="10" cy="10" r="9" fill="#62688F" fill-opacity="0.12"/>
</g>
<path d="M10.0179 4.06498V4.07089C10.0238 4.10044 10.0238 4.13591 10.0238 4.17138V8.43345C10.0179 8.45709 10.0002 8.46301 9.98247 8.47483C9.85833 8.53394 9.7401 8.58714 9.61596 8.64035C9.44454 8.71719 9.2672 8.79995 9.09577 8.8768L8.47508 9.16054C8.30365 9.23739 8.13222 9.31424 7.9667 9.39108C7.76572 9.48567 7.55882 9.57434 7.35784 9.66892C7.18641 9.74576 7.01498 9.82852 6.83764 9.90537C6.69577 9.97039 6.55389 10.0295 6.41793 10.0945C6.40611 10.1004 6.39429 10.1064 6.38247 10.1064C6.37655 10.1064 6.37655 10.1064 6.37064 10.1004L6.53025 9.83443C6.83764 9.32606 7.13912 8.8236 7.44651 8.31522C7.77163 7.77138 8.10266 7.22754 8.42779 6.68369C8.72926 6.18123 9.03665 5.67877 9.33813 5.17631C9.55685 4.8098 9.78148 4.4433 10.0002 4.0768C10.0061 4.06498 10.012 4.05906 10.012 4.04724H10.0179C10.012 4.05315 10.0179 4.05906 10.0179 4.06498Z" fill="#8A92B2"/>
<path d="M13.6473 10.1005L13.6532 10.1064L12.7842 10.6207L10.0532 12.2345C10.0413 12.2404 10.0295 12.2463 10.0236 12.2522C10.0059 12.2522 10.0059 12.2345 10.0059 12.2285V12.1753V8.52215C10.0059 8.50441 10.0059 8.48077 10.0118 8.46303C10.0177 8.43939 10.0354 8.4453 10.0532 8.45121C10.13 8.48668 10.2128 8.52215 10.2896 8.55761C10.5202 8.66402 10.7507 8.77042 10.9812 8.87091C11.1822 8.95958 11.3773 9.05417 11.5783 9.14284C11.7793 9.23151 11.9803 9.32609 12.1812 9.41476C12.3527 9.4916 12.53 9.57436 12.7014 9.65121C12.8729 9.72806 13.0502 9.81082 13.2216 9.88766C13.3576 9.94678 13.4936 10.0118 13.6295 10.0709C13.6295 10.0886 13.6354 10.0946 13.6473 10.1005Z" fill="#454A75"/>
<path d="M10.0177 15.9231C10.0177 15.929 10.0118 15.9349 10.0118 15.9409H10.0059C10.0059 15.929 9.99405 15.9231 9.98814 15.9113C9.62163 15.397 9.25513 14.8768 8.88863 14.3625C8.51621 13.8364 8.13789 13.3044 7.76548 12.7783C7.40488 12.2699 7.03838 11.7556 6.67779 11.2473C6.58321 11.1113 6.48863 10.9812 6.39405 10.8453C6.38814 10.8335 6.38222 10.8275 6.3704 10.8098C6.38814 10.8098 6.39996 10.8216 6.40587 10.8275C6.92016 11.129 7.42853 11.4305 7.94282 11.732C8.53395 12.0808 9.11917 12.4295 9.7103 12.7783L10.0118 12.9556C10.0236 12.9675 10.0236 12.9793 10.0236 12.9911V15.8404C10.0236 15.8699 10.0236 15.8995 10.0177 15.9231Z" fill="#8A92B2"/>
<path d="M6.36452 10.1123V10.1064C6.55369 10.0236 6.73694 9.93497 6.9261 9.85221C7.16846 9.73989 7.41083 9.63349 7.65319 9.52117C7.83644 9.43842 8.02561 9.34975 8.20886 9.26699C8.48078 9.14285 8.74679 9.02462 9.01871 8.90048C9.20196 8.81773 9.38521 8.73497 9.57438 8.6463C9.70442 8.58718 9.84039 8.52807 9.97043 8.46896C9.98226 8.46305 9.99999 8.45714 10.0059 8.44531C10.0118 8.44531 10.0118 8.45122 10.0059 8.45714V12.2108C10.0059 12.2286 9.99999 12.2463 10.0118 12.2581C9.99999 12.2759 9.98817 12.2581 9.98226 12.2522C9.92906 12.2227 9.87585 12.1931 9.82265 12.1576C8.68176 11.4837 7.53497 10.8039 6.39408 10.13C6.38817 10.1241 6.37635 10.1182 6.36452 10.1123Z" fill="#62688F"/>
<path d="M13.6354 10.8098H13.6413C13.6413 10.8216 13.6295 10.8335 13.6236 10.8453C12.5359 12.3763 11.4482 13.9133 10.3606 15.4443C10.2482 15.6039 10.13 15.7635 10.0177 15.9231C10.0118 15.9172 10.0118 15.9113 10.0118 15.9054V15.8699V13.0029V12.9497C10.2601 12.8019 10.5024 12.6601 10.7507 12.5123C11.7083 11.9448 12.666 11.3832 13.6177 10.8157C13.6236 10.8216 13.6295 10.8157 13.6354 10.8098Z" fill="#62688F"/>
<path d="M10.0118 8.45713V8.44531V8.40984V4.11821C10.0118 4.10048 10.0059 4.08866 10.0177 4.07092C11.2177 6.06304 12.4177 8.04925 13.6118 10.0414C13.6236 10.0591 13.6414 10.0827 13.6473 10.1064C13.5645 10.0768 13.4877 10.0355 13.4108 9.99999C13.3163 9.95861 13.2158 9.91132 13.1212 9.86994C13.0621 9.84038 12.997 9.81674 12.9379 9.78718C12.8374 9.73989 12.7369 9.69851 12.6365 9.65122C12.5773 9.62757 12.5182 9.59802 12.4591 9.56846L12.069 9.39112C12.0039 9.36156 11.9389 9.33201 11.868 9.30245L11.5842 9.17831C11.5251 9.15467 11.466 9.12511 11.4069 9.09555L11.0167 8.91821C10.9517 8.88866 10.8867 8.8591 10.8158 8.82954L10.532 8.70541C10.467 8.67585 10.4079 8.64629 10.3429 8.61674C10.2305 8.56353 10.1182 8.51033 10 8.46304C10.0177 8.45713 10.0118 8.45713 10.0118 8.45713Z" fill="#62688F"/>
<defs>
<filter id="filter0_b_1751_4082" x="-37" y="-37" width="94" height="94" filterUnits="userSpaceOnUse" color-interpolation-filters="sRGB">
<feFlood flood-opacity="0" result="BackgroundImageFix"/>
<feGaussianBlur in="BackgroundImageFix" stdDeviation="19"/>
<feComposite in2="SourceAlpha" operator="in" result="effect1_backgroundBlur_1751_4082"/>
<feBlend mode="normal" in="SourceGraphic" in2="effect1_backgroundBlur_1751_4082" result="shape"/>
</filter>
</defs>
</svg>
