<svg width="20" height="20" viewBox="0 0 20 20" fill="none" xmlns="http://www.w3.org/2000/svg">
<path fill-rule="evenodd" clip-rule="evenodd" d="M16.8507 10.3588C16.6624 10.3491 16.5185 10.1885 16.5185 10C16.5185 9.81146 16.6624 9.65089 16.8507 9.64118L17.5721 9.60397C17.8025 9.59209 18 9.7693 18 10C18 10.2307 17.8025 10.4079 17.5721 10.396L16.8507 10.3588ZM15.6459 6.73981C15.7403 6.90297 15.9454 6.97052 16.1133 6.8848L16.7556 6.55688C16.9617 6.45166 17.0441 6.19807 16.9282 5.99779C16.8123 5.7975 16.5521 5.74368 16.3581 5.86989L15.7536 6.26322C15.5956 6.36604 15.5515 6.57665 15.6459 6.73981ZM13.2602 4.35408C13.4233 4.4485 13.634 4.40435 13.7368 4.24635L14.1301 3.64189C14.2563 3.44794 14.2025 3.18772 14.0022 3.07182C13.8019 2.95592 13.5483 3.03834 13.4431 3.24443L13.1152 3.88673C13.0295 4.05462 13.097 4.25966 13.2602 4.35408ZM10 3.48148C10.1885 3.48148 10.3491 3.33762 10.3588 3.14933L10.396 2.42791C10.4079 2.19752 10.2307 2 10 2C9.7693 2 9.59209 2.19752 9.60397 2.42791L9.64118 3.14932C9.65089 3.33762 9.81146 3.48148 10 3.48148ZM6.73981 4.35408C6.90297 4.25966 6.97052 4.05462 6.8848 3.88673L6.55688 3.24443C6.45166 3.03834 6.19807 2.95592 5.99779 3.07182C5.7975 3.18772 5.74368 3.44794 5.86989 3.64189L6.26322 4.24635C6.36604 4.40435 6.57665 4.4485 6.73981 4.35408ZM4.35408 6.73981C4.4485 6.57665 4.40435 6.36604 4.24635 6.26322L3.64189 5.86989C3.44794 5.74368 3.18772 5.7975 3.07182 5.99779C2.95592 6.19807 3.03834 6.45166 3.24443 6.55688L3.88673 6.8848C4.05462 6.97052 4.25966 6.90297 4.35408 6.73981ZM3.14933 9.64118C3.33762 9.65089 3.48148 9.81146 3.48148 10C3.48148 10.1885 3.33762 10.3491 3.14932 10.3588L2.42791 10.396C2.19752 10.4079 2 10.2307 2 10C2 9.7693 2.19752 9.59209 2.42791 9.60398L3.14933 9.64118ZM4.35408 13.2602C4.25966 13.097 4.05462 13.0295 3.88673 13.1152L3.24443 13.4431C3.03834 13.5483 2.95592 13.8019 3.07182 14.0022C3.18772 14.2025 3.44794 14.2563 3.6419 14.1301L4.24635 13.7368C4.40435 13.634 4.4485 13.4233 4.35408 13.2602ZM6.73981 15.6459C6.57665 15.5515 6.36604 15.5956 6.26322 15.7536L5.86989 16.3581C5.74368 16.5521 5.7975 16.8123 5.99779 16.9282C6.19807 17.0441 6.45166 16.9617 6.55688 16.7556L6.8848 16.1133C6.97052 15.9454 6.90297 15.7403 6.73981 15.6459ZM10 16.5185C9.81146 16.5185 9.65089 16.6624 9.64118 16.8507L9.60398 17.5721C9.59209 17.8025 9.7693 18 10 18C10.2307 18 10.4079 17.8025 10.396 17.5721L10.3588 16.8507C10.3491 16.6624 10.1885 16.5185 10 16.5185ZM13.2602 15.6459C13.097 15.7403 13.0295 15.9454 13.1152 16.1133L13.4431 16.7556C13.5483 16.9617 13.8019 17.0441 14.0022 16.9282C14.2025 16.8123 14.2563 16.5521 14.1301 16.3581L13.7368 15.7536C13.634 15.5956 13.4233 15.5515 13.2602 15.6459ZM15.6459 13.2602C15.5515 13.4233 15.5956 13.634 15.7536 13.7368L16.3581 14.1301C16.5521 14.2563 16.8123 14.2025 16.9282 14.0022C17.0441 13.8019 16.9617 13.5483 16.7556 13.4431L16.1133 13.1152C15.9454 13.0295 15.7403 13.097 15.6459 13.2602Z" fill="white"/>
<path d="M15.4815 10C15.4815 13.0274 13.0274 15.4815 10 15.4815C6.9727 15.4815 4.51855 13.0274 4.51855 10C4.51855 6.9727 6.9727 4.51855 10 4.51855C13.0274 4.51855 15.4815 6.9727 15.4815 10Z" fill="white"/>
</svg>
