<svg width="18" height="17" viewBox="0 0 18 17" fill="none" xmlns="http://www.w3.org/2000/svg">
<path d="M8 4.25C7.34375 4.0625 6.8125 3.5 6.75 2.8125C6.65625 1.84375 7.40625 1 8.375 1H8.5V0.25C8.5 0.125 8.59375 0 8.75 0H9.25C9.375 0 9.5 0.125 9.5 0.25V1H9.53125C10.0312 1 10.5 1.1875 10.875 1.46875C11 1.5625 11 1.75 10.9062 1.84375L10.5312 2.1875C10.4688 2.28125 10.3438 2.3125 10.25 2.25C10.0312 2.09375 9.78125 2 9.53125 2H8.375C8.03125 2 7.75 2.3125 7.75 2.65625C7.75 2.9375 7.9375 3.1875 8.21875 3.28125L10.0625 3.78125C10.9062 4.03125 11.4688 5 11.1562 5.90625C10.9062 6.59375 10.25 7 9.53125 7H9.5V7.75C9.5 7.90625 9.375 8 9.25 8H8.75C8.59375 8 8.5 7.90625 8.5 7.75V7H8.4375C7.96875 7 7.5 6.84375 7.09375 6.5625C6.96875 6.46875 6.96875 6.28125 7.0625 6.1875L7.4375 5.8125C7.5 5.75 7.65625 5.71875 7.75 5.78125C7.9375 5.9375 8.1875 6 8.4375 6H9.59375C9.9375 6 10.25 5.71875 10.25 5.375C10.25 5.09375 10.0312 4.84375 9.78125 4.75L8 4.25ZM17.4375 10.4375C17.8125 10.7812 18 11.25 18 11.7188C17.9688 12.2188 17.75 12.6875 17.375 12.9688L14.2188 15.5C13.7812 15.8438 13.2812 16.0312 12.75 16.0312H0.25C0.09375 16.0312 0 15.9062 0 15.7812V15.2812C0 15.125 0.09375 15.0312 0.25 15.0312H12.75C13.0625 15.0312 13.3438 14.9062 13.5938 14.7188L16.75 12.2188C17.0625 11.9375 17.0938 11.4688 16.75 11.1875C16.5 10.9375 16.125 11 15.875 11.1875L13.9375 12.7188C13.7188 12.9062 13.4062 13 13.125 13H7.5C7.21875 13 7 12.7812 7 12.5C7 12.25 7.21875 12 7.5 12H10.25C10.6562 12 11 11.6875 11 11.25C11 10.8438 10.6562 10.5 10.25 10.5H5.65625C5.21875 10.5 4.8125 10.6562 4.4375 10.9062L3 12H0.25C0.09375 12 0 11.9062 0 11.75V11.25C0 11.125 0.09375 11 0.25 11H2.65625L3.84375 10.125C4.375 9.71875 5 9.5 5.65625 9.5H10.1562C11.0312 9.5 11.8438 10.125 11.9688 11C12.0312 11.375 11.9688 11.7188 11.8125 12H13.125C13.1875 12 13.25 12 13.3125 11.9375L15.25 10.4062C15.875 9.875 16.8125 9.875 17.4375 10.4375Z" fill="white"/>
</svg>
