<svg width="18" height="18" viewBox="0 0 18 18" fill="none" xmlns="http://www.w3.org/2000/svg">
<path d="M10.4062 13.3438L7.90625 15.8125C6.34375 17.4062 3.75 17.4062 2.1875 15.8125C0.59375 14.25 0.59375 11.6562 2.1875 10.0938L4.65625 7.59375C4.6875 7.5625 4.71875 7.53125 4.75 7.5C5 7.28125 5.375 7.4375 5.40625 7.75C5.40625 7.90625 5.40625 8.0625 5.4375 8.21875C5.4375 8.3125 5.40625 8.4375 5.3125 8.53125C4.8125 9.03125 2.96875 10.875 2.96875 10.875C1.8125 12.0312 1.8125 13.875 2.96875 15.0312C4.125 16.1875 5.96875 16.1875 7.125 15.0312L9.59375 12.5625L9.625 12.5312C10.75 11.4062 10.75 9.53125 9.59375 8.40625C9.34375 8.15625 9.0625 7.9375 8.75 7.8125C8.59375 7.75 8.5 7.59375 8.5 7.4375C8.53125 7.28125 8.5625 7.125 8.59375 6.96875C8.65625 6.75 8.90625 6.65625 9.09375 6.71875C9.5625 6.9375 10 7.21875 10.4062 7.59375C11.9688 9.1875 11.9688 11.7812 10.4062 13.3438ZM7.5625 10.4375C6 8.84375 6 6.25 7.5625 4.6875L10.0625 2.21875C11.625 0.625 14.2188 0.625 15.7812 2.21875C17.375 3.78125 17.375 6.375 15.7812 7.9375L13.3125 10.4375C13.2812 10.4688 13.25 10.5 13.2188 10.5312C12.9688 10.75 12.5938 10.5938 12.5625 10.2812C12.5625 10.125 12.5625 9.96875 12.5312 9.8125C12.5312 9.71875 12.5625 9.59375 12.6562 9.5C13.1562 9 15 7.15625 15 7.15625C16.1562 6 16.1562 4.15625 15 3C13.8438 1.84375 12 1.84375 10.8438 3L8.375 5.46875L8.34375 5.5C7.21875 6.625 7.21875 8.5 8.375 9.625C8.625 9.875 8.90625 10.0938 9.21875 10.2188C9.375 10.2812 9.46875 10.4375 9.46875 10.5938C9.4375 10.75 9.40625 10.9062 9.375 11.0625C9.3125 11.2812 9.0625 11.375 8.875 11.3125C8.40625 11.0938 7.96875 10.8125 7.5625 10.4375Z" fill="white"/>
</svg>
