<svg width="15" height="10" viewBox="0 0 15 10" fill="none" xmlns="http://www.w3.org/2000/svg">
<path d="M5.57812 2.64844C5.22656 2.97656 5.20312 3.51562 5.53125 3.86719C5.83594 4.19531 6.39844 4.21875 6.72656 3.91406L8.48438 2.29688C8.64844 2.15625 8.88281 2.17969 9.02344 2.32031C9.16406 2.48438 9.16406 2.71875 9 2.85938L8.34375 3.46875L11.2031 5.78906C11.2734 5.85938 11.3438 5.92969 11.3906 6.02344H14.8125C14.9062 6.02344 15 6.09375 15 6.21094V6.58594C15 6.67969 14.9062 6.77344 14.8125 6.77344H11.6016C11.5781 6.98438 11.5078 7.19531 11.3672 7.35938L11.1328 7.64062C10.7344 8.13281 10.125 8.13281 9.72656 7.92188L9.21094 8.55469C8.97656 8.83594 8.625 9 8.25 9C7.96875 9 7.6875 8.90625 7.45312 8.74219L7.28906 8.57812C6.60938 9.14062 5.625 9.16406 4.92188 8.60156L3.02344 6.77344H0.1875C0.0703125 6.77344 0 6.67969 0 6.58594V6.21094C0 6.09375 0.0703125 6.02344 0.1875 6.02344H3.32812L5.41406 8.03906C5.88281 8.39062 6.58594 8.32031 6.98438 7.85156L7.21875 7.54688L7.94531 8.15625C8.13281 8.32031 8.46094 8.29688 8.625 8.08594L9.60938 6.89062L10.0312 7.21875C10.1953 7.35938 10.4297 7.3125 10.5469 7.17188L10.7812 6.89062C10.8984 6.72656 10.875 6.49219 10.7109 6.375L7.78125 3.98438L7.24219 4.47656C6.35156 5.29688 5.29688 4.73438 4.96875 4.35938C4.38281 3.72656 4.40625 2.69531 5.0625 2.08594L6.44531 0.820312C6.44531 0.773438 6.44531 0.820312 6.42188 0.75H4.80469C4.71094 0.75 4.59375 0.796875 4.52344 0.867188L3.14062 2.25H0.1875C0.0703125 2.25 0 2.17969 0 2.0625V1.6875C0 1.59375 0.0703125 1.5 0.1875 1.5H2.83594L4.00781 0.328125C4.21875 0.117188 4.5 0 4.80469 0H6.42188C6.67969 0 6.91406 0.09375 7.125 0.257812C7.3125 0.09375 7.54688 0.0234375 7.78125 0.0234375H10.1484C10.4531 0.0234375 10.7344 0.140625 10.9453 0.351562L12.1406 1.52344H14.8125C14.9062 1.52344 15 1.59375 15 1.71094V2.08594C15 2.17969 14.9062 2.27344 14.8125 2.27344H11.8359L10.4062 0.867188C10.3359 0.796875 10.2422 0.773438 10.1484 0.773438H7.78125C7.6875 0.773438 7.59375 0.796875 7.52344 0.867188L5.57812 2.64844Z" fill="#C5C5C5"/>
</svg>
