<svg width="20" height="17" viewBox="0 0 20 17" fill="none" xmlns="http://www.w3.org/2000/svg">
<path d="M19.9062 15.1875C19.9375 15.2188 19.9688 15.2812 19.9688 15.375C19.9688 15.4375 19.9688 15.5 19.9375 15.5312L19.625 15.9062C19.5625 15.9688 19.5 16.0312 19.4062 16.0312C19.375 16.0312 19.3125 16 19.2812 15.9688L0.09375 0.84375C0.03125 0.8125 0 0.75 0 0.65625C0 0.59375 0 0.53125 0.03125 0.5L0.34375 0.09375C0.40625 0.0625 0.46875 0.03125 0.5625 0.03125C0.59375 0.03125 0.65625 0.03125 0.71875 0.0625L19.9062 15.1875ZM10 3C8.96875 3 8.0625 3.40625 7.34375 4.03125L5.90625 2.90625C7.15625 2.34375 8.53125 2 9.96875 2H10C13.8125 2 17.1875 4.25 18.875 7.5625C18.9375 7.6875 18.9688 7.84375 18.9688 8.03125C18.9688 8.1875 18.9375 8.34375 18.875 8.46875C18.3125 9.5625 17.5625 10.5312 16.6562 11.375L15.875 10.75C16.75 9.96875 17.4375 9.0625 18 8C17.0938 6.28125 15.6875 4.84375 13.9375 3.96875C14.5938 4.8125 15 5.875 15 7C15 7.9375 14.7188 8.78125 14.3125 9.5L13.5 8.875C13.8125 8.3125 14 7.6875 14 7C13.9688 4.8125 12.1875 3.03125 10 3ZM11.875 7.59375L9.875 6.03125C9.9375 5.875 9.96875 5.6875 9.96875 5.53125C9.96875 5.34375 9.9375 5.1875 9.90625 5.03125C9.9375 5.03125 9.96875 5 10 5V5.03125C11.0938 5.03125 11.9688 5.90625 11.9688 7C11.9688 7.21875 11.9375 7.40625 11.875 7.59375ZM5.09375 6.0625L6 6.78125C6 6.875 6 6.9375 6 7C6 9.21875 7.78125 11 10 11C10.375 11 10.75 10.9375 11.125 10.8125L12.0625 11.5625C11.4062 11.8438 10.7188 12.0312 9.96875 12.0312C7.21875 12.0312 4.96875 9.78125 4.96875 7.03125C4.96875 7.03125 4.96875 7.03125 5 7C5 6.6875 5.03125 6.375 5.09375 6.0625ZM10 13C11.0938 13 12.1562 12.7812 13.125 12.4062L14.0625 13.125C12.8125 13.6875 11.4375 14 10 14C6.15625 14 2.78125 11.7812 1.09375 8.46875C1.03125 8.34375 1 8.1875 1 8C1 7.84375 1.03125 7.6875 1.09375 7.5625C1.65625 6.46875 2.40625 5.5 3.3125 4.65625L4.125 5.3125C3.28125 6.0625 2.53125 6.9375 2 8C3.5625 11.0938 6.625 13 10 13Z" fill="white"/>
</svg>
