<svg width="20" height="20" viewBox="0 0 20 20" fill="none" xmlns="http://www.w3.org/2000/svg">
<path d="M11.4062 14.3438L8.90625 16.8125C7.34375 18.4062 4.75 18.4062 3.1875 16.8125C1.59375 15.25 1.59375 12.6562 3.1875 11.0938L5.65625 8.59375C5.6875 8.5625 5.71875 8.53125 5.75 8.5C6 8.28125 6.375 8.4375 6.40625 8.75C6.40625 8.90625 6.40625 9.0625 6.4375 9.21875C6.4375 9.3125 6.40625 9.4375 6.3125 9.53125C5.8125 10.0312 3.96875 11.875 3.96875 11.875C2.8125 13.0312 2.8125 14.875 3.96875 16.0312C5.125 17.1875 6.96875 17.1875 8.125 16.0312L10.5938 13.5625L10.625 13.5312C11.75 12.4062 11.75 10.5312 10.5938 9.40625C10.3438 9.15625 10.0625 8.9375 9.75 8.8125C9.59375 8.75 9.5 8.59375 9.5 8.4375C9.53125 8.28125 9.5625 8.125 9.59375 7.96875C9.65625 7.75 9.90625 7.65625 10.0938 7.71875C10.5625 7.9375 11 8.21875 11.4062 8.59375C12.9688 10.1875 12.9688 12.7812 11.4062 14.3438ZM8.5625 11.4375C7 9.84375 7 7.25 8.5625 5.6875L11.0625 3.21875C12.625 1.625 15.2188 1.625 16.7812 3.21875C18.375 4.78125 18.375 7.375 16.7812 8.9375L14.3125 11.4375C14.2812 11.4688 14.25 11.5 14.2188 11.5312C13.9688 11.75 13.5938 11.5938 13.5625 11.2812C13.5625 11.125 13.5625 10.9688 13.5312 10.8125C13.5312 10.7188 13.5625 10.5938 13.6562 10.5C14.1562 10 16 8.15625 16 8.15625C17.1562 7 17.1562 5.15625 16 4C14.8438 2.84375 13 2.84375 11.8438 4L9.375 6.46875L9.34375 6.5C8.21875 7.625 8.21875 9.5 9.375 10.625C9.625 10.875 9.90625 11.0938 10.2188 11.2188C10.375 11.2812 10.4688 11.4375 10.4688 11.5938C10.4375 11.75 10.4062 11.9062 10.375 12.0625C10.3125 12.2812 10.0625 12.375 9.875 12.3125C9.40625 12.0938 8.96875 11.8125 8.5625 11.4375Z" fill="white"/>
</svg>
