<svg width="20" height="20" viewBox="0 0 20 20" fill="none" xmlns="http://www.w3.org/2000/svg">
<path d="M11.0312 10L14.9062 13.875C15 13.9688 15 14.125 14.9062 14.25L14.2188 14.9375C14.0938 15.0312 13.9375 15.0312 13.8438 14.9375L13.1875 14.2812L10 11.0625L6.125 14.9375C6.03125 15.0312 5.875 15.0312 5.75 14.9375L5.0625 14.25C4.96875 14.125 4.96875 13.9688 5.0625 13.875L8.9375 10L5.0625 6.15625C4.96875 6.0625 4.96875 5.90625 5.0625 5.78125L5.75 5.09375C5.875 5 6.03125 5 6.125 5.09375L10 8.96875L13.8438 5.09375C13.9375 5 14.0938 5 14.2188 5.09375L14.9062 5.78125C15 5.90625 15 6.0625 14.9062 6.15625L14.25 6.8125L11.0312 10Z" fill="white"/>
</svg>
