<svg width="16" height="16" viewBox="0 0 16 16" fill="none" xmlns="http://www.w3.org/2000/svg">
<path d="M15.0625 9.375C15.375 9.53125 15.5 9.90625 15.4062 10.2188C15.0625 11.4062 14.4375 12.4688 13.625 13.3438C13.375 13.5938 13 13.6562 12.6875 13.4688L11.6875 12.875C11.2812 13.1875 10.8438 13.4375 10.3438 13.6562V14.8125C10.3438 15.1875 10.125 15.4688 9.78125 15.5625C8.59375 15.8438 7.375 15.8438 6.1875 15.5625C5.84375 15.4688 5.625 15.1875 5.625 14.8125V13.6562C5.125 13.4375 4.6875 13.1875 4.28125 12.875L3.28125 13.4688C2.96875 13.6562 2.59375 13.5938 2.34375 13.3438C1.53125 12.4688 0.90625 11.4062 0.5625 10.2188C0.46875 9.90625 0.59375 9.53125 0.90625 9.375L1.90625 8.78125C1.875 8.53125 1.875 8.28125 1.875 8.03125C1.875 7.75 1.875 7.5 1.90625 7.25L0.90625 6.65625C0.59375 6.5 0.46875 6.125 0.5625 5.8125C0.90625 4.625 1.53125 3.5625 2.34375 2.6875C2.59375 2.4375 2.96875 2.375 3.28125 2.5625L4.28125 3.15625C4.6875 2.84375 5.125 2.59375 5.625 2.375V1.21875C5.625 0.84375 5.84375 0.5625 6.1875 0.46875C7.375 0.1875 8.59375 0.1875 9.78125 0.46875C10.125 0.5625 10.3438 0.84375 10.3438 1.21875V2.375C10.8438 2.59375 11.2812 2.84375 11.6875 3.15625L12.6875 2.5625C13 2.375 13.375 2.4375 13.625 2.6875C14.4375 3.5625 15.0625 4.625 15.4062 5.8125C15.5 6.125 15.375 6.5 15.0625 6.65625L14.0625 7.25C14.0938 7.5 14.0938 7.75 14.0938 8C14.0938 8.28125 14.0938 8.53125 14.0625 8.78125L15.0625 9.375ZM13.0312 12.5C13.625 11.8125 14.0938 11 14.4062 10.125L12.9375 9.3125C13.1562 8.1875 13.1562 7.84375 12.9375 6.71875L14.4062 5.90625C14.0938 5.03125 13.625 4.21875 13.0312 3.53125L11.5625 4.375C10.7188 3.625 10.4062 3.4375 9.34375 3.0625V1.40625C8.90625 1.3125 8.46875 1.25 8 1.25C7.53125 1.25 7.0625 1.3125 6.625 1.40625V3.0625C5.5625 3.4375 5.25 3.625 4.40625 4.375L2.9375 3.53125C2.34375 4.21875 1.875 5.03125 1.5625 5.90625L3.03125 6.71875C2.8125 7.84375 2.8125 8.1875 3.03125 9.3125L1.5625 10.125C1.875 11 2.34375 11.8125 2.9375 12.5L4.40625 11.6562C5.25 12.4062 5.5625 12.5938 6.625 12.9688V14.625C7.0625 14.7188 7.5 14.7812 7.96875 14.7812C8.4375 14.7812 8.90625 14.7188 9.34375 14.625V12.9688C10.4375 12.5625 10.7188 12.4062 11.5625 11.6562L13.0312 12.5ZM8 5C9.625 5 11 6.375 11 8C11 9.65625 9.625 11 8 11C6.34375 11 5 9.65625 5 8C5 6.375 6.34375 5 8 5ZM8 10C9.09375 10 10 9.125 10 8C10 6.90625 9.09375 6 8 6C6.875 6 6 6.90625 6 8C6 9.125 6.875 10 8 10Z" fill="white"/>
</svg>
