<svg width="20" height="20" viewBox="0 0 20 20" fill="none" xmlns="http://www.w3.org/2000/svg">
<path d="M7.4375 7.53125C6.96875 7.96875 6.9375 8.6875 7.375 9.15625C7.78125 9.59375 8.53125 9.625 8.96875 9.21875L11.3125 7.0625C11.5312 6.875 11.8438 6.90625 12.0312 7.09375C12.2188 7.3125 12.2188 7.625 12 7.8125L11.125 8.625L14.9375 11.7188C15.0312 11.8125 15.125 11.9062 15.1875 12.0312H19.75C19.875 12.0312 20 12.125 20 12.2812V12.7812C20 12.9062 19.875 13.0312 19.75 13.0312H15.4688C15.4375 13.3125 15.3438 13.5938 15.1562 13.8125L14.8438 14.1875C14.3125 14.8438 13.5 14.8438 12.9688 14.5625L12.2812 15.4062C11.9688 15.7812 11.5 16 11 16C10.625 16 10.25 15.875 9.9375 15.6562L9.71875 15.4375C8.8125 16.1875 7.5 16.2188 6.5625 15.4688L4.03125 13.0312H0.25C0.09375 13.0312 0 12.9062 0 12.7812V12.2812C0 12.125 0.09375 12.0312 0.25 12.0312H4.4375L7.21875 14.7188C7.84375 15.1875 8.78125 15.0938 9.3125 14.4688L9.625 14.0625L10.5938 14.875C10.8438 15.0938 11.2812 15.0625 11.5 14.7812L12.8125 13.1875L13.375 13.625C13.5938 13.8125 13.9062 13.75 14.0625 13.5625L14.375 13.1875C14.5312 12.9688 14.5 12.6562 14.2812 12.5L10.375 9.3125L9.65625 9.96875C8.46875 11.0625 7.0625 10.3125 6.625 9.8125C5.84375 8.96875 5.875 7.59375 6.75 6.78125L8.59375 5.09375C8.59375 5.03125 8.59375 5.09375 8.5625 5H6.40625C6.28125 5 6.125 5.0625 6.03125 5.15625L4.1875 7H0.25C0.09375 7 0 6.90625 0 6.75V6.25C0 6.125 0.09375 6 0.25 6H3.78125L5.34375 4.4375C5.625 4.15625 6 4 6.40625 4H8.5625C8.90625 4 9.21875 4.125 9.5 4.34375C9.75 4.125 10.0625 4.03125 10.375 4.03125H13.5312C13.9375 4.03125 14.3125 4.1875 14.5938 4.46875L16.1875 6.03125H19.75C19.875 6.03125 20 6.125 20 6.28125V6.78125C20 6.90625 19.875 7.03125 19.75 7.03125H15.7812L13.875 5.15625C13.7812 5.0625 13.6562 5.03125 13.5312 5.03125H10.375C10.25 5.03125 10.125 5.0625 10.0312 5.15625L7.4375 7.53125Z" fill="#797F8A"/>
</svg>
