<svg width="20" height="20" viewBox="0 0 20 20" fill="none" xmlns="http://www.w3.org/2000/svg">
<g filter="url(#filter0_b_2155_355646)">
<circle cx="10" cy="10" r="9" fill="#62688F" fill-opacity="0.12"/>
</g>
<path d="M10.0174 4.06461V4.07052C10.0233 4.10008 10.0233 4.13554 10.0233 4.17101V8.43308C10.0174 8.45673 9.99967 8.46264 9.98194 8.47446C9.8578 8.53358 9.73958 8.58678 9.61544 8.63998C9.44401 8.71683 9.26667 8.79958 9.09524 8.87643L8.47455 9.16018C8.30312 9.23702 8.13169 9.31387 7.96618 9.39072C7.76519 9.4853 7.55829 9.57397 7.35731 9.66855C7.18588 9.7454 7.01445 9.82816 6.83711 9.905C6.69524 9.97003 6.55337 10.0291 6.41741 10.0942C6.40559 10.1001 6.39376 10.106 6.38194 10.106C6.37603 10.106 6.37603 10.106 6.37012 10.1001L6.52972 9.83407C6.83711 9.32569 7.13859 8.82323 7.44598 8.31486C7.7711 7.77101 8.10214 7.22717 8.42726 6.68333C8.72874 6.18087 9.03613 5.6784 9.3376 5.17594C9.55632 4.80944 9.78095 4.44293 9.99967 4.07643C10.0056 4.06461 10.0115 4.0587 10.0115 4.04688H10.0174C10.0115 4.05279 10.0174 4.0587 10.0174 4.06461Z" fill="#8A92B2"/>
<path d="M13.6472 10.0999L13.6532 10.1058L12.7842 10.6201L10.0532 12.2339C10.0413 12.2398 10.0295 12.2457 10.0236 12.2516C10.0059 12.2516 10.0059 12.2339 10.0059 12.2279V12.1747V8.52154C10.0059 8.5038 10.0059 8.48016 10.0118 8.46242C10.0177 8.43878 10.0354 8.44469 10.0532 8.4506C10.13 8.48607 10.2128 8.52154 10.2896 8.557C10.5201 8.66341 10.7507 8.76981 10.9812 8.8703C11.1822 8.95897 11.3773 9.05356 11.5783 9.14223C11.7793 9.2309 11.9802 9.32548 12.1812 9.41415C12.3527 9.49099 12.53 9.57375 12.7014 9.6506C12.8729 9.72745 13.0502 9.81021 13.2216 9.88705C13.3576 9.94617 13.4935 10.0112 13.6295 10.0703C13.6295 10.088 13.6354 10.0939 13.6472 10.0999Z" fill="#454A75"/>
<path d="M10.0174 15.9219C10.0174 15.9278 10.0115 15.9337 10.0115 15.9396H10.0056C10.0056 15.9278 9.99376 15.9219 9.98785 15.9101C9.62135 15.3958 9.25485 14.8756 8.88834 14.3613C8.51593 13.8352 8.1376 13.3032 7.76519 12.7771C7.4046 12.2687 7.0381 11.7544 6.67751 11.246C6.58293 11.1101 6.48834 10.98 6.39376 10.8441C6.38785 10.8322 6.38194 10.8263 6.37012 10.8086C6.38785 10.8086 6.39967 10.8204 6.40559 10.8263C6.91987 11.1278 7.42825 11.4293 7.94253 11.7308C8.53366 12.0795 9.11889 12.4283 9.71002 12.7771L10.0115 12.9544C10.0233 12.9662 10.0233 12.9781 10.0233 12.9899V15.8391C10.0233 15.8687 10.0233 15.8983 10.0174 15.9219Z" fill="#8A92B2"/>
<path d="M6.36426 10.1123V10.1064C6.55342 10.0236 6.73667 9.93497 6.92583 9.85221C7.1682 9.73989 7.41056 9.63349 7.65293 9.52117C7.83618 9.43842 8.02534 9.34975 8.20859 9.26699C8.48051 9.14285 8.74652 9.02462 9.01845 8.90048C9.2017 8.81773 9.38495 8.73497 9.57411 8.6463C9.70416 8.58718 9.84012 8.52807 9.97017 8.46896C9.98199 8.46305 9.99973 8.45714 10.0056 8.44531C10.0115 8.44531 10.0115 8.45122 10.0056 8.45714V12.2108C10.0056 12.2286 9.99973 12.2463 10.0115 12.2581C9.99973 12.2759 9.9879 12.2581 9.98199 12.2522C9.92879 12.2227 9.87559 12.1931 9.82239 12.1576C8.6815 11.4837 7.5347 10.8039 6.39381 10.13C6.3879 10.1241 6.37608 10.1182 6.36426 10.1123Z" fill="#62688F"/>
<path d="M13.6354 10.8086H13.6413C13.6413 10.8204 13.6295 10.8322 13.6235 10.8441C12.5359 12.3751 11.4482 13.912 10.3605 15.4431C10.2482 15.6027 10.1299 15.7623 10.0176 15.9219C10.0117 15.916 10.0117 15.9101 10.0117 15.9042V15.8687V13.0017V12.9485C10.26 12.8007 10.5024 12.6588 10.7506 12.5111C11.7083 11.9436 12.6659 11.382 13.6176 10.8145C13.6235 10.8204 13.6295 10.8145 13.6354 10.8086Z" fill="#62688F"/>
<path d="M10.0118 8.45652V8.4447V8.40923V4.1176C10.0118 4.09987 10.0059 4.08805 10.0177 4.07031C11.2177 6.06243 12.4177 8.04864 13.6118 10.0408C13.6236 10.0585 13.6414 10.0821 13.6473 10.1058C13.5645 10.0762 13.4877 10.0348 13.4108 9.99938C13.3163 9.958 13.2158 9.91071 13.1212 9.86933C13.0621 9.83977 12.997 9.81612 12.9379 9.78657C12.8374 9.73928 12.7369 9.6979 12.6365 9.65061C12.5773 9.62696 12.5182 9.59741 12.4591 9.56785L12.069 9.39051C12.0039 9.36095 11.9389 9.3314 11.868 9.30184L11.5842 9.1777C11.5251 9.15406 11.466 9.1245 11.4069 9.09494L11.0167 8.9176C10.9517 8.88805 10.8867 8.85849 10.8158 8.82893L10.532 8.70479C10.467 8.67524 10.4079 8.64568 10.3429 8.61613C10.2305 8.56292 10.1182 8.50972 10 8.46243C10.0177 8.45652 10.0118 8.45652 10.0118 8.45652Z" fill="#62688F"/>
<defs>
<filter id="filter0_b_2155_355646" x="-37" y="-37" width="94" height="94" filterUnits="userSpaceOnUse" color-interpolation-filters="sRGB">
<feFlood flood-opacity="0" result="BackgroundImageFix"/>
<feGaussianBlur in="BackgroundImageFix" stdDeviation="19"/>
<feComposite in2="SourceAlpha" operator="in" result="effect1_backgroundBlur_2155_355646"/>
<feBlend mode="normal" in="SourceGraphic" in2="effect1_backgroundBlur_2155_355646" result="shape"/>
</filter>
</defs>
</svg>
