<svg width="16" height="17" viewBox="0 0 16 17" fill="none" xmlns="http://www.w3.org/2000/svg">
<path d="M8 2C11.8438 2 15 5.15625 15 9C15 9.03125 14.9688 9.03125 14.9688 9.03125C14.9688 10.5938 14.4688 12.0312 13.5938 13.1875L14.8438 14.4688C14.9375 14.5312 15 14.6562 15 14.8125C15 14.9375 14.9375 15.0625 14.8438 15.1562L14.125 15.875C14.0312 15.9688 13.9062 16 13.7812 16C13.625 16 13.5 15.9688 13.4375 15.875L12.1875 14.625C11 15.5 9.5625 16 7.96875 16C6.40625 16 4.96875 15.5 3.8125 14.625L2.53125 15.875C2.46875 15.9688 2.34375 16.0312 2.1875 16.0312C2.0625 16.0312 1.9375 15.9688 1.84375 15.875L1.125 15.1562C1.03125 15.0625 0.96875 14.9375 0.96875 14.8125C0.96875 14.6562 1.03125 14.5312 1.125 14.4688L2.375 13.1875C1.5 12.0312 1 10.5938 1 9.03125V9C1 5.15625 4.125 2 8 2ZM8 14.5C11.0312 14.5 13.5 12.0625 13.5 9C13.5 5.96875 11.0312 3.5 8 3.5C4.9375 3.5 2.5 5.96875 2.5 9C2.5 12.0625 4.9375 14.5 8 14.5ZM3 0C3.78125 0.03125 4.5 0.3125 5.03125 0.8125L0.46875 4.625C0.15625 4.15625 0 3.59375 0 3C0 1.375 1.34375 0 3 0ZM8.75 9.15625L10.5625 10.625C10.625 10.6562 10.6562 10.7188 10.6562 10.8125C10.6562 10.875 10.625 10.9375 10.5938 10.9688L9.96875 11.75C9.9375 11.8125 9.875 11.8438 9.8125 11.8438H9.78125C9.71875 11.8438 9.65625 11.8125 9.625 11.7812L7.625 10.1875C7.375 10 7.25 9.71875 7.25 9.40625V5.25C7.25 5.125 7.34375 5 7.5 5H8.5C8.625 5 8.75 5.125 8.75 5.25V9.15625ZM13 0C14.625 0 16 1.375 16 3C15.9688 3.59375 15.8125 4.15625 15.5 4.625L10.9375 0.8125C11.4688 0.3125 12.1875 0.03125 13 0Z" fill="white"/>
</svg>
