<svg width="16" height="16" viewBox="0 0 16 16" fill="none" xmlns="http://www.w3.org/2000/svg">
<rect width="16" height="16" rx="4" fill="#2E343D"/>
<path d="M4.24219 8.36719C4.14453 8.28906 4.14453 8.13281 4.24219 8.03516L8.32422 3.95312C8.42188 3.85547 8.55859 3.85547 8.65625 3.95312L12.7383 8.03516C12.8359 8.13281 12.8359 8.28906 12.7383 8.36719L12.3672 8.75781C12.2695 8.85547 12.1133 8.85547 12.0352 8.75781L9.00781 5.73047V12.3906C9.00781 12.5273 8.89062 12.625 8.77344 12.625H8.22656C8.08984 12.625 7.99219 12.5273 7.99219 12.3906V5.73047L4.94531 8.75781C4.86719 8.85547 4.71094 8.85547 4.61328 8.75781L4.24219 8.36719Z" fill="#00B976"/>
</svg>
