<svg width="251" height="252" viewBox="0 0 251 252" fill="none" xmlns="http://www.w3.org/2000/svg">
<g opacity="0.8" filter="url(#filter0_f_918_29720)">
<path d="M162.99 163.489C167.913 158.566 171.818 152.721 174.482 146.289C177.147 139.856 178.518 132.962 178.518 126C178.518 119.037 177.147 112.143 174.482 105.71C171.818 99.2779 167.913 93.4332 162.99 88.51C158.066 83.5868 152.222 79.6815 145.789 77.0171C139.357 74.3527 132.462 72.9814 125.5 72.9814C118.538 72.9814 111.643 74.3527 105.211 77.0171C98.7784 79.6815 92.9337 83.5868 88.0105 88.51L125.5 126L162.99 163.489Z" fill="#55f795"/>
</g>
<g opacity="0.8" filter="url(#filter1_f_918_29720)">
<path d="M88.0105 88.511C83.0873 93.4342 79.182 99.2788 76.5176 105.711C73.8532 112.144 72.4818 119.038 72.4818 126C72.4818 132.963 73.8532 139.857 76.5176 146.29C79.182 152.722 83.0873 158.567 88.0105 163.49C92.9337 168.413 98.7784 172.318 105.211 174.983C111.643 177.647 118.538 179.019 125.5 179.019C132.462 179.019 139.357 177.647 145.789 174.983C152.222 172.318 158.066 168.413 162.99 163.49L125.5 126L88.0105 88.511Z" fill="#55f764"/>
</g>
<rect x="89.418" y="89.918" width="72.1636" height="72.1636" rx="12" fill="#191D22"/>
<path d="M141.942 136.504L127.413 144.893L111.053 135.424L125.581 127.037L141.942 136.504Z" fill="#55f764"/>
<path opacity="0.5" d="M141.942 136.504L127.413 144.893L111.053 135.424L125.581 127.037L141.942 136.504Z" fill="#0A0A0B"/>
<path d="M125.581 115.666V127.037L111.053 135.424V124.055L125.581 115.666Z" fill="#55f764"/>
<path opacity="0.23" d="M125.581 115.666V127.037L111.053 135.424V124.055L125.581 115.666Z" fill="#0A0A0B"/>
<path d="M127.413 133.522V144.893L111.053 135.425V124.056L127.413 133.522Z" fill="#55f764"/>
<path opacity="0.38" d="M127.413 133.522V144.893L111.053 135.425V124.056L127.413 133.522Z" fill="#0A0A0B"/>
<path d="M141.941 125.132V136.504L125.581 127.037V115.666L141.941 125.132Z" fill="#55f764"/>
<path opacity="0.4" d="M141.941 125.132V136.504L125.581 127.037V115.666L141.941 125.132Z" fill="#0A0A0B"/>
<path d="M141.942 136.504V125.133L127.413 133.522V144.893L141.942 136.504Z" fill="#55f764"/>
<path opacity="0.23" d="M141.942 136.504V125.133L127.413 133.522V144.893L141.942 136.504Z" fill="#0A0A0B"/>
<path d="M125.581 115.666L125.601 109.371L141.922 118.849L141.941 125.133L125.581 115.666Z" fill="#55f764"/>
<path opacity="0.2" d="M125.581 115.666L125.601 109.371L141.922 118.849L141.941 125.133L125.581 115.666Z" fill="#0A0A0B"/>
<path d="M127.413 133.522L128.776 128.014L143.173 119.702L141.942 125.133L127.413 133.522Z" fill="#55f764"/>
<path opacity="0.3" d="M127.413 133.522L128.776 128.014L143.173 119.702L141.942 125.133L127.413 133.522Z" fill="#0A0A0B"/>
<path d="M111.053 124.055L109.319 118.343L123.848 109.956L125.581 115.666L111.053 124.055Z" fill="#55f764"/>
<path opacity="0.1" d="M111.053 124.055L109.319 118.343L123.848 109.956L125.581 115.666L111.053 124.055Z" fill="#0A0A0B"/>
<path d="M111.053 124.055L107.633 119.334L123.996 128.8L127.413 133.522L111.053 124.055Z" fill="#55f764"/>
<path opacity="0.45" d="M111.053 124.055L107.633 119.334L123.996 128.8L127.413 133.522L111.053 124.055Z" fill="#0A0A0B"/>
<g opacity="0.7">
<path d="M131.692 141.512C131.668 141.512 131.645 141.502 131.628 141.486C131.611 141.469 131.602 141.447 131.601 141.423V139.422C131.602 139.398 131.611 139.375 131.628 139.358C131.645 139.341 131.668 139.332 131.692 139.331C131.715 139.332 131.738 139.341 131.754 139.358C131.771 139.375 131.78 139.398 131.78 139.422V141.423C131.78 141.446 131.771 141.469 131.754 141.486C131.738 141.502 131.715 141.512 131.692 141.512Z" fill="#FBFCD4"/>
<path d="M131.43 140.115C131.418 140.116 131.406 140.116 131.394 140.115C131.373 140.105 131.356 140.087 131.347 140.065C131.338 140.043 131.338 140.018 131.347 139.996L131.666 139.262L132.02 139.671C132.033 139.69 132.039 139.712 132.036 139.734C132.033 139.756 132.022 139.777 132.005 139.791C131.989 139.806 131.967 139.814 131.945 139.814C131.922 139.813 131.901 139.805 131.885 139.79L131.717 139.593L131.52 140.065C131.512 140.082 131.499 140.095 131.482 140.104C131.466 140.113 131.448 140.116 131.43 140.115Z" fill="#FBFCD4"/>
<path d="M132.517 141.041C132.493 141.04 132.471 141.031 132.454 141.014C132.437 140.997 132.428 140.974 132.428 140.95V138.951C132.428 138.927 132.438 138.905 132.454 138.888C132.471 138.872 132.493 138.862 132.517 138.862C132.54 138.862 132.563 138.872 132.58 138.888C132.596 138.905 132.605 138.927 132.605 138.951V140.948C132.606 140.96 132.604 140.972 132.599 140.983C132.595 140.994 132.589 141.004 132.58 141.013C132.572 141.021 132.562 141.028 132.551 141.033C132.54 141.038 132.529 141.041 132.517 141.041Z" fill="#FBFCD4"/>
<path d="M132.255 139.644C132.243 139.646 132.231 139.646 132.219 139.644C132.209 139.639 132.199 139.632 132.191 139.624C132.182 139.615 132.176 139.605 132.172 139.594C132.168 139.583 132.166 139.572 132.166 139.56C132.166 139.548 132.169 139.537 132.174 139.526L132.491 138.781L132.846 139.189C132.862 139.206 132.871 139.228 132.871 139.252C132.871 139.276 132.862 139.298 132.846 139.315C132.837 139.323 132.828 139.33 132.817 139.335C132.806 139.339 132.794 139.341 132.783 139.341C132.771 139.341 132.759 139.339 132.749 139.335C132.738 139.33 132.728 139.323 132.72 139.315L132.552 139.118L132.355 139.591C132.347 139.61 132.333 139.625 132.314 139.635C132.296 139.645 132.275 139.648 132.255 139.644Z" fill="#FBFCD4"/>
</g>
<g opacity="0.7">
<path d="M129.31 142.868C129.276 142.868 129.243 142.86 129.213 142.844C129.178 142.821 129.149 142.79 129.13 142.752C129.111 142.714 129.102 142.672 129.105 142.63V142.383C129.106 142.36 129.115 142.337 129.132 142.321C129.149 142.304 129.172 142.295 129.196 142.295C129.219 142.295 129.242 142.304 129.258 142.321C129.275 142.337 129.284 142.36 129.284 142.383V142.63C129.284 142.665 129.284 142.685 129.302 142.689C129.32 142.693 129.33 142.689 129.359 142.673C129.415 142.622 129.458 142.559 129.487 142.489C129.516 142.42 129.529 142.345 129.527 142.269V141.245C129.527 141.221 129.536 141.199 129.552 141.182C129.569 141.166 129.592 141.156 129.615 141.156C129.639 141.156 129.661 141.166 129.678 141.182C129.694 141.199 129.704 141.221 129.704 141.245V142.269C129.708 142.375 129.687 142.481 129.643 142.578C129.599 142.675 129.533 142.76 129.45 142.827C129.408 142.853 129.359 142.867 129.31 142.868Z" fill="#FBFCD4"/>
<path d="M128.371 142.043V141.889C128.394 141.495 128.509 141.111 128.707 140.769C128.905 140.427 129.181 140.136 129.511 139.919C129.834 139.734 130.141 139.707 130.378 139.845C130.504 139.931 130.604 140.05 130.669 140.188C130.733 140.327 130.759 140.48 130.744 140.632V140.684L128.371 142.043ZM130.047 139.927C129.889 139.935 129.736 139.982 129.602 140.065C129.318 140.252 129.079 140.497 128.899 140.784C128.718 141.071 128.602 141.394 128.558 141.73L130.561 140.571C130.569 140.457 130.548 140.343 130.5 140.239C130.451 140.136 130.376 140.047 130.283 139.98C130.21 139.942 130.129 139.924 130.047 139.927Z" fill="#FBFCD4"/>
</g>
<path opacity="0.7" d="M107.633 119.334L123.996 128.8L127.413 133.522L123.814 128.968L107.633 119.334Z" fill="#FBFCD4"/>
<path opacity="0.7" d="M141.942 125.133L127.413 133.522V144.893L127.685 133.75L141.942 125.133Z" fill="#FBFCD4"/>
<path d="M120.621 120.584C122.12 120.367 123.489 119.402 124.363 118.189C124.771 117.622 125.072 116.985 125.25 116.31C125.439 115.678 125.47 115.01 125.34 114.364C125.071 113.282 124.07 112.642 123.012 112.508C122.476 112.438 121.93 112.491 121.417 112.664C120.885 112.846 120.423 113.191 120.097 113.649C119.892 113.893 119.764 114.191 119.727 114.508C119.724 114.631 119.767 114.752 119.849 114.845C119.931 114.938 120.045 114.997 120.168 115.01C120.485 115.037 120.802 114.956 121.068 114.781C121.393 114.599 121.678 114.356 121.909 114.064C122.405 113.453 122.775 112.75 123 111.996C123.158 111.349 123.158 110.674 123 110.026C122.88 109.35 122.571 108.721 122.108 108.212C121.577 107.73 120.904 107.433 120.19 107.367C119.479 107.27 118.755 107.337 118.074 107.564C117.775 107.655 117.498 107.807 117.261 108.009C117.091 108.167 116.898 108.427 116.967 108.683C117.036 108.939 117.41 109.053 117.664 109.02C118.041 108.949 118.385 108.763 118.649 108.486C118.944 108.196 119.194 107.864 119.392 107.501C119.539 107.24 119.616 106.946 119.614 106.646C119.589 105.398 118.208 104.59 117.127 104.362C116.835 104.301 116.536 104.281 116.238 104.302C116.138 104.302 116.199 104.468 116.28 104.462C116.862 104.436 117.44 104.566 117.954 104.84C118.461 105.073 118.887 105.453 119.177 105.929C119.306 106.165 119.37 106.43 119.362 106.698C119.354 106.966 119.274 107.227 119.13 107.454C118.937 107.79 118.697 108.096 118.417 108.364C118.182 108.577 117.826 108.823 117.497 108.799C117.443 108.799 117.39 108.784 117.344 108.755C117.298 108.726 117.261 108.685 117.237 108.636C117.227 108.571 117.232 108.505 117.253 108.443C117.273 108.381 117.307 108.324 117.353 108.277C117.527 108.09 117.742 107.946 117.982 107.856C118.573 107.61 119.212 107.505 119.851 107.549C120.509 107.56 121.149 107.766 121.691 108.139C122.163 108.531 122.498 109.063 122.648 109.658C122.838 110.262 122.897 110.9 122.821 111.529C122.704 112.162 122.461 112.765 122.106 113.302C121.742 113.905 121.285 114.484 120.599 114.72C120.43 114.781 120.075 114.87 120.008 114.624C119.941 114.378 120.134 114.074 120.259 113.883C120.533 113.451 120.933 113.114 121.405 112.916C121.86 112.734 122.352 112.659 122.841 112.699C123.769 112.768 124.71 113.253 125.033 114.175C125.195 114.726 125.213 115.309 125.084 115.869C124.969 116.482 124.748 117.071 124.432 117.61C123.754 118.755 122.726 119.651 121.499 120.169C121.208 120.295 120.909 120.401 120.603 120.499C120.572 120.511 120.586 120.59 120.621 120.584Z" fill="#E0E0E0"/>
<path d="M114.36 103.483C113.572 103.426 112.486 104.047 112.873 104.5C113.259 104.953 114.283 104.22 114.283 104.22C114.283 104.22 114.186 105.136 114.521 105.24C114.856 105.345 115.309 104.47 114.974 103.911C115.136 103.974 115.311 103.996 115.483 103.974C115.655 103.952 115.819 103.887 115.959 103.785C116.436 103.434 115.931 103.103 115.26 103.162C115.26 103.162 115.74 101.587 114.769 101.888C114.283 102.036 114.111 102.605 114.36 103.483Z" fill="#55f764"/>
<path opacity="0.65" d="M114.36 103.483C113.572 103.426 112.486 104.047 112.873 104.5C113.259 104.953 114.283 104.22 114.283 104.22C114.283 104.22 114.186 105.136 114.521 105.24C114.856 105.345 115.309 104.47 114.974 103.911C115.136 103.974 115.311 103.996 115.483 103.974C115.655 103.952 115.819 103.887 115.959 103.785C116.436 103.434 115.931 103.103 115.26 103.162C115.26 103.162 115.74 101.587 114.769 101.888C114.283 102.036 114.111 102.605 114.36 103.483Z" fill="white"/>
<path d="M115.092 103.818C115.049 103.776 115.003 103.736 114.955 103.698C114.886 103.645 114.813 103.594 114.744 103.543C114.677 103.494 114.606 103.45 114.533 103.411C114.491 103.387 114.447 103.366 114.403 103.348C114.342 103.319 114.273 103.308 114.206 103.316C114.188 103.317 114.171 103.322 114.156 103.331C114.141 103.341 114.129 103.354 114.121 103.37C114.113 103.385 114.109 103.403 114.111 103.421C114.112 103.438 114.117 103.455 114.127 103.47C114.181 103.528 114.249 103.573 114.324 103.6L114.431 103.657C114.503 103.7 114.568 103.749 114.628 103.799C114.687 103.848 114.765 103.895 114.825 103.944C114.926 104.027 115.04 104.093 115.161 104.141C115.167 104.144 115.173 104.146 115.179 104.146C115.185 104.146 115.191 104.144 115.197 104.141C115.297 104.063 115.15 103.876 115.092 103.818Z" fill="#455A64"/>
<defs>
<filter id="filter0_f_918_29720" x="16.0103" y="0.981445" width="234.508" height="234.508" filterUnits="userSpaceOnUse" color-interpolation-filters="sRGB">
<feFlood flood-opacity="0" result="BackgroundImageFix"/>
<feBlend mode="normal" in="SourceGraphic" in2="BackgroundImageFix" result="shape"/>
<feGaussianBlur stdDeviation="36" result="effect1_foregroundBlur_918_29720"/>
</filter>
<filter id="filter1_f_918_29720" x="0.481934" y="16.5107" width="234.508" height="234.508" filterUnits="userSpaceOnUse" color-interpolation-filters="sRGB">
<feFlood flood-opacity="0" result="BackgroundImageFix"/>
<feBlend mode="normal" in="SourceGraphic" in2="BackgroundImageFix" result="shape"/>
<feGaussianBlur stdDeviation="36" result="effect1_foregroundBlur_918_29720"/>
</filter>
</defs>
</svg>
