<svg width="16" height="16" viewBox="0 0 16 16" fill="none" xmlns="http://www.w3.org/2000/svg">
<rect width="16" height="16" rx="4" fill="#2E343D"/>
<path d="M12.2383 8.15234C12.3359 8.23047 12.3359 8.38672 12.2383 8.48438L8.15625 12.5664C8.05859 12.6641 7.92188 12.6641 7.82422 12.5664L3.74219 8.48438C3.64453 8.38672 3.64453 8.23047 3.74219 8.15234L4.11328 7.76172C4.21094 7.66406 4.36719 7.66406 4.44531 7.76172L7.49219 10.7891V4.10938C7.49219 3.99219 7.58984 3.875 7.72656 3.875H8.27344C8.39062 3.875 8.50781 3.99219 8.50781 4.10938V10.7891L11.5352 7.76172C11.6133 7.66406 11.7695 7.66406 11.8672 7.76172L12.2383 8.15234Z" fill="#FA0B00"/>
</svg>
