<svg width="16" height="16" viewBox="0 0 16 16" fill="none" xmlns="http://www.w3.org/2000/svg">
<path d="M14.1641 4C14.5391 4 14.7969 4.35156 14.7266 4.70312L13.6719 9.57812C13.6016 9.83594 13.3906 10 13.1094 10H5.79688L6.00781 11.125H12.6172C12.9922 11.125 13.25 11.4766 13.1797 11.8281L13.1562 11.9219C13.4375 12.2031 13.625 12.5781 13.625 13C13.625 13.8438 12.9453 14.5 12.125 14.5C11.2812 14.5 10.625 13.8438 10.625 13C10.625 12.7422 10.6953 12.4844 10.8125 12.25H7.41406C7.53125 12.4844 7.625 12.7422 7.625 13C7.625 13.8438 6.94531 14.5 6.125 14.5C5.28125 14.5 4.625 13.8438 4.625 13C4.625 12.6016 4.76562 12.25 5.02344 11.9688L3.40625 3.625H1.53125C1.36719 3.625 1.25 3.50781 1.25 3.34375V2.78125C1.25 2.64062 1.36719 2.5 1.53125 2.5H3.875C4.13281 2.5 4.36719 2.71094 4.41406 2.96875L4.625 4H14.1641ZM6.125 13.5625C6.42969 13.5625 6.6875 13.3281 6.6875 13C6.6875 12.6953 6.42969 12.4375 6.125 12.4375C5.79688 12.4375 5.5625 12.6953 5.5625 13C5.5625 13.3281 5.79688 13.5625 6.125 13.5625ZM12.125 13.5625C12.4297 13.5625 12.6875 13.3281 12.6875 13C12.6875 12.6953 12.4297 12.4375 12.125 12.4375C11.7969 12.4375 11.5625 12.6953 11.5625 13C11.5625 13.3281 11.7969 13.5625 12.125 13.5625ZM12.6641 8.875L13.4844 5.125H4.83594L5.5625 8.875H12.6641Z" fill="#C5C5C5"/>
</svg>
