<svg width="16" height="15" viewBox="0 0 16 15" fill="none" xmlns="http://www.w3.org/2000/svg">
<path d="M15.1914 2.5C15.6289 2.5 15.9297 2.91016 15.8477 3.32031L14.6172 9.00781C14.5352 9.30859 14.2891 9.5 13.9609 9.5H5.42969L5.67578 10.8125H13.3867C13.8242 10.8125 14.125 11.2227 14.043 11.6328L14.0156 11.7422C14.3438 12.0703 14.5625 12.5078 14.5625 13C14.5625 13.9844 13.7695 14.75 12.8125 14.75C11.8281 14.75 11.0625 13.9844 11.0625 13C11.0625 12.6992 11.1445 12.3984 11.2812 12.125H7.31641C7.45312 12.3984 7.5625 12.6992 7.5625 13C7.5625 13.9844 6.76953 14.75 5.8125 14.75C4.82812 14.75 4.0625 13.9844 4.0625 13C4.0625 12.5352 4.22656 12.125 4.52734 11.7969L2.64062 2.0625H0.453125C0.261719 2.0625 0.125 1.92578 0.125 1.73438V1.07812C0.125 0.914062 0.261719 0.75 0.453125 0.75H3.1875C3.48828 0.75 3.76172 0.996094 3.81641 1.29688L4.0625 2.5H15.1914ZM5.8125 13.6562C6.16797 13.6562 6.46875 13.3828 6.46875 13C6.46875 12.6445 6.16797 12.3438 5.8125 12.3438C5.42969 12.3438 5.15625 12.6445 5.15625 13C5.15625 13.3828 5.42969 13.6562 5.8125 13.6562ZM12.8125 13.6562C13.168 13.6562 13.4688 13.3828 13.4688 13C13.4688 12.6445 13.168 12.3438 12.8125 12.3438C12.4297 12.3438 12.1562 12.6445 12.1562 13C12.1562 13.3828 12.4297 13.6562 12.8125 13.6562ZM13.4414 8.1875L14.3984 3.8125H4.30859L5.15625 8.1875H13.4414Z" fill="#0A0A0B"/>
</svg>
