<svg width="21" height="20" viewBox="0 0 21 20" fill="none" xmlns="http://www.w3.org/2000/svg">
<path d="M11.5312 10L15.4062 13.875C15.5 13.9688 15.5 14.125 15.4062 14.25L14.7188 14.9375C14.5938 15.0312 14.4375 15.0312 14.3438 14.9375L13.6875 14.2812L10.5 11.0625L6.625 14.9375C6.53125 15.0312 6.375 15.0312 6.25 14.9375L5.5625 14.25C5.46875 14.125 5.46875 13.9688 5.5625 13.875L9.4375 10L5.5625 6.15625C5.46875 6.0625 5.46875 5.90625 5.5625 5.78125L6.25 5.09375C6.375 5 6.53125 5 6.625 5.09375L10.5 8.96875L14.3438 5.09375C14.4375 5 14.5938 5 14.7188 5.09375L15.4062 5.78125C15.5 5.90625 15.5 6.0625 15.4062 6.15625L14.75 6.8125L11.5312 10Z" fill="#FE2626"/>
</svg>
