<svg width="20" height="20" viewBox="0 0 20 20" fill="none" xmlns="http://www.w3.org/2000/svg">
<path d="M17.0625 11.375C17.375 11.5312 17.5 11.9062 17.4062 12.2188C17.0625 13.4062 16.4375 14.4688 15.625 15.3438C15.375 15.5938 15 15.6562 14.6875 15.4688L13.6875 14.875C13.2812 15.1875 12.8438 15.4375 12.3438 15.6562V16.8125C12.3438 17.1875 12.125 17.4688 11.7812 17.5625C10.5938 17.8438 9.375 17.8438 8.1875 17.5625C7.84375 17.4688 7.625 17.1875 7.625 16.8125V15.6562C7.125 15.4375 6.6875 15.1875 6.28125 14.875L5.28125 15.4688C4.96875 15.6562 4.59375 15.5938 4.34375 15.3438C3.53125 14.4688 2.90625 13.4062 2.5625 12.2188C2.46875 11.9062 2.59375 11.5312 2.90625 11.375L3.90625 10.7812C3.875 10.5312 3.875 10.2812 3.875 10.0312C3.875 9.75 3.875 9.5 3.90625 9.25L2.90625 8.65625C2.59375 8.5 2.46875 8.125 2.5625 7.8125C2.90625 6.625 3.53125 5.5625 4.34375 4.6875C4.59375 4.4375 4.96875 4.375 5.28125 4.5625L6.28125 5.15625C6.6875 4.84375 7.125 4.59375 7.625 4.375V3.21875C7.625 2.84375 7.84375 2.5625 8.1875 2.46875C9.375 2.1875 10.5938 2.1875 11.7812 2.46875C12.125 2.5625 12.3438 2.84375 12.3438 3.21875V4.375C12.8438 4.59375 13.2812 4.84375 13.6875 5.15625L14.6875 4.5625C15 4.375 15.375 4.4375 15.625 4.6875C16.4375 5.5625 17.0625 6.625 17.4062 7.8125C17.5 8.125 17.375 8.5 17.0625 8.65625L16.0625 9.25C16.0938 9.5 16.0938 9.75 16.0938 10C16.0938 10.2812 16.0938 10.5312 16.0625 10.7812L17.0625 11.375ZM15.0312 14.5C15.625 13.8125 16.0938 13 16.4062 12.125L14.9375 11.3125C15.1562 10.1875 15.1562 9.84375 14.9375 8.71875L16.4062 7.90625C16.0938 7.03125 15.625 6.21875 15.0312 5.53125L13.5625 6.375C12.7188 5.625 12.4062 5.4375 11.3438 5.0625V3.40625C10.9062 3.3125 10.4688 3.25 10 3.25C9.53125 3.25 9.0625 3.3125 8.625 3.40625V5.0625C7.5625 5.4375 7.25 5.625 6.40625 6.375L4.9375 5.53125C4.34375 6.21875 3.875 7.03125 3.5625 7.90625L5.03125 8.71875C4.8125 9.84375 4.8125 10.1875 5.03125 11.3125L3.5625 12.125C3.875 13 4.34375 13.8125 4.9375 14.5L6.40625 13.6562C7.25 14.4062 7.5625 14.5938 8.625 14.9688V16.625C9.0625 16.7188 9.5 16.7812 9.96875 16.7812C10.4375 16.7812 10.9062 16.7188 11.3438 16.625V14.9688C12.4375 14.5625 12.7188 14.4062 13.5625 13.6562L15.0312 14.5ZM10 7C11.625 7 13 8.375 13 10C13 11.6562 11.625 13 10 13C8.34375 13 7 11.6562 7 10C7 8.375 8.34375 7 10 7ZM10 12C11.0938 12 12 11.125 12 10C12 8.90625 11.0938 8 10 8C8.875 8 8 8.90625 8 10C8 11.125 8.875 12 10 12Z" fill="white"/>
</svg>
