<svg width="21" height="20" viewBox="0 0 21 20" fill="none" xmlns="http://www.w3.org/2000/svg">
<path d="M6.46875 4C6.71875 4 6.96875 4.25 6.96875 4.5V7.5C6.96875 7.78125 6.71875 8 6.46875 8H3.46875C3.1875 8 2.96875 7.78125 2.96875 7.5V4.5C2.96875 4.25 3.1875 4 3.46875 4H6.46875ZM5.96875 7V5H3.96875V7H5.96875ZM14.9688 6.5C14.9688 6.25 14.7188 6 14.4688 6H9.96875V5H14.4688C15.2812 5 15.9688 5.6875 15.9688 6.5V9H14.9688V6.5ZM18.4688 12C18.7188 12 18.9688 12.25 18.9688 12.5V15.5C18.9688 15.7812 18.7188 16 18.4688 16H15.4688C15.1875 16 14.9688 15.7812 14.9688 15.5V12.5C14.9688 12.25 15.1875 12 15.4688 12H18.4688ZM17.9688 15V13H15.9688V15H17.9688ZM19.4688 10C20.2812 10 20.9688 10.6875 20.9688 11.5V16.5C20.9688 17.3438 20.2812 18 19.4688 18H14.4688C13.625 18 12.9688 17.3438 12.9688 16.5V11.5C12.9688 10.6875 13.625 10 14.4688 10H19.4688ZM19.9688 16.5V11.5C19.9688 11.25 19.7188 11 19.4688 11H14.4688C14.1875 11 13.9688 11.25 13.9688 11.5V16.5C13.9688 16.7812 14.1875 17 14.4688 17H19.4688C19.7188 17 19.9688 16.7812 19.9688 16.5ZM6.96875 13.5C6.96875 13.7812 7.1875 14 7.46875 14H11.9688V15H7.46875C6.625 15 5.96875 14.3438 5.96875 13.5V11H6.96875V13.5ZM8.96875 8.5C8.96875 9.34375 8.28125 10 7.46875 10H2.46875C1.625 10 0.96875 9.34375 0.96875 8.5V3.5C0.96875 2.6875 1.625 2 2.46875 2H7.46875C8.28125 2 8.96875 2.6875 8.96875 3.5V8.5ZM1.96875 8.5C1.96875 8.78125 2.1875 9 2.46875 9H7.46875C7.71875 9 7.96875 8.78125 7.96875 8.5V3.5C7.96875 3.25 7.71875 3 7.46875 3H2.46875C2.1875 3 1.96875 3.25 1.96875 3.5V8.5Z" fill="white"/>
</svg>
